<?xml version="1.0" encoding="utf-8"?>
<!-- Generator: Adobe Illustrator 16.0.0, SVG Export Plug-In . SVG Version: 6.00 Build 0)  -->
<!DOCTYPE svg PUBLIC "-//W3C//DTD SVG 1.1//EN" "http://www.w3.org/Graphics/SVG/1.1/DTD/svg11.dtd">
<svg version="1.1" id="Layer_1" xmlns="http://www.w3.org/2000/svg" xmlns:xlink="http://www.w3.org/1999/xlink" x="0px" y="0px"
	 width="200px" height="200px" viewBox="0 0 200 200" enable-background="new 0 0 200 200" xml:space="preserve">
<g>
</g>
<g>
	<g>
		<linearGradient id="SVGID_1_" gradientUnits="userSpaceOnUse" x1="0.0903" y1="102.7285" x2="199.8789" y2="102.7285">
			<stop  offset="0" style="stop-color:#FBAC18"/>
			<stop  offset="0.9409" style="stop-color:#F26226"/>
		</linearGradient>
		<path fill="url(#SVGID_1_)" d="M51.353,52.503c-8.75,0-15.876,7.318-15.876,16.305c0,9.003,7.125,16.316,15.876,16.316
			c8.768,0,15.89-7.313,15.89-16.316C67.243,59.821,60.121,52.503,51.353,52.503z M45.526,66.273c0-1.295,1.032-2.351,2.291-2.351
			c1.26,0,2.276,1.056,2.276,2.351c0,1.297-1.016,2.341-2.276,2.341C46.559,68.614,45.526,67.57,45.526,66.273z M51.353,77.091
			c-0.968,0-1.896-0.208-2.749-0.52c5.189-0.429,9.316-4.852,9.316-10.299c0-0.955-0.17-1.865-0.411-2.741
			c1.17,1.435,1.91,3.267,1.91,5.287C59.42,73.381,55.805,77.091,51.353,77.091z M145.431,52.503
			c-8.753,0-15.876,7.318-15.876,16.305c0,8.994,7.123,16.316,15.876,16.316c8.762,0,15.874-7.313,15.874-16.316
			C161.305,59.821,154.192,52.503,145.431,52.503z M139.609,66.273c0-1.295,1.03-2.351,2.29-2.351c1.261,0,2.271,1.056,2.271,2.351
			c0,1.297-1.01,2.341-2.271,2.341C140.64,68.614,139.609,67.57,139.609,66.273z M145.431,77.091c-0.965,0-1.883-0.208-2.747-0.52
			c5.187-0.429,9.3-4.852,9.3-10.299c0-0.955-0.166-1.865-0.396-2.741c1.177,1.435,1.906,3.267,1.906,5.287
			C153.493,73.381,149.881,77.091,145.431,77.091z M195.968,80.673h-1.562c-1.489-18.137-13.005-33.366-28.815-39.849
			C151.173,19.473,127.154,5.458,99.983,5.458c-27.168,0-51.186,14.015-65.614,35.367C18.549,47.307,7.05,62.536,5.563,80.673H3.995
			c-2.148,0-3.904,1.8-3.904,4.021c0,2.205,1.756,4.012,3.904,4.012h1.568c1.192,14.594,8.862,27.329,20.059,35.132l11.076,72.759
			c0.295,1.947,1.936,3.402,3.856,3.402h29.31c2.146,0,3.901-1.807,3.901-4.012c0-14.86,11.764-26.931,26.218-26.931
			c14.446,0,26.216,12.085,26.216,26.931c0,2.205,1.744,4.012,3.905,4.012h29.31c1.922,0,3.563-1.455,3.852-3.402l11.064-72.759
			c11.204-7.804,18.866-20.538,20.076-35.132h1.562c2.149,0,3.911-1.807,3.911-4.012C199.879,82.473,198.117,80.673,195.968,80.673z
			 M20.138,87.466c0,0.21,0.024,0.419,0.052,0.615l3.596,23.673c-6.547-7.052-10.606-16.565-10.606-27.06
			c0-12.043,5.317-22.807,13.635-30.011C22.531,64.734,20.138,75.812,20.138,87.466z M51.353,123.908
			c-6.743,0-13.064-1.82-18.559-4.982l-4.832-31.77c0.047-14.625,4.271-28.251,11.484-39.714c3.751-1.26,7.748-1.969,11.906-1.969
			c21.062,0,38.188,17.586,38.188,39.222C89.541,106.323,72.415,123.908,51.353,123.908z M120.452,142.344H98.165
			c-2.163,0-3.923-1.795-3.923-4.016c0-2.205,1.76-4.006,3.923-4.006h22.287c2.151,0,3.899,1.801,3.899,4.006
			C124.352,140.549,122.604,142.344,120.452,142.344z M167.173,118.926c-5.498,3.162-11.83,4.982-18.562,4.982
			c-21.066,0-38.183-17.585-38.183-39.214c0-21.636,17.116-39.222,38.183-39.222c4.161,0,8.143,0.709,11.893,1.969
			c7.214,11.463,11.445,25.088,11.5,39.714L167.173,118.926z M176.176,111.754l3.601-23.673c0.035-0.195,0.052-0.404,0.052-0.615
			c0-11.654-2.392-22.732-6.68-32.782c8.334,7.204,13.646,17.968,13.646,30.011C186.795,95.189,182.744,104.702,176.176,111.754z"/>
	</g>
</g>
</svg>
