<?xml version="1.0" encoding="utf-8"?>
<!-- Generator: Adobe Illustrator 16.0.0, SVG Export Plug-In . SVG Version: 6.00 Build 0)  -->
<!DOCTYPE svg PUBLIC "-//W3C//DTD SVG 1.1//EN" "http://www.w3.org/Graphics/SVG/1.1/DTD/svg11.dtd">
<svg version="1.1" id="Layer_1" xmlns="http://www.w3.org/2000/svg" xmlns:xlink="http://www.w3.org/1999/xlink" x="0px" y="0px"
	 width="200px" height="200px" viewBox="0 0 200 200" enable-background="new 0 0 200 200" xml:space="preserve">
<g>
</g>
<linearGradient id="SVGID_1_" gradientUnits="userSpaceOnUse" x1="4.882813e-004" y1="99.8345" x2="199.3271" y2="99.8345">
	<stop  offset="0" style="stop-color:#FBAC18"/>
	<stop  offset="0.9409" style="stop-color:#F26226"/>
</linearGradient>
<path fill="url(#SVGID_1_)" d="M99.665,0.17C44.716,0.17,0,44.886,0,99.834c0,54.956,44.716,99.665,99.664,99.665
	c54.958,0,99.663-44.709,99.663-99.665C199.327,44.886,154.623,0.17,99.665,0.17z M155.613,72.16l15.349-6.356
	c2.124-0.862,4.55,0.139,5.428,2.252c0.869,2.119-0.132,4.544-2.246,5.417l-15.349,6.363l-1.581,0.323
	c-1.635,0-3.169-0.968-3.837-2.575C152.496,75.463,153.499,73.039,155.613,72.16z M119.663,40.698l6.363-15.351
	c0.879-2.119,3.322-3.109,5.425-2.247c2.123,0.874,3.13,3.304,2.247,5.423l-6.358,15.35c-0.657,1.603-2.214,2.564-3.838,2.564
	l-1.59-0.317C119.798,45.253,118.793,42.816,119.663,40.698z M95.511,22.472c0-2.286,1.863-4.149,4.154-4.149
	c2.287,0,4.156,1.863,4.156,4.149V39.09c0,2.281-1.869,4.149-4.156,4.149c-2.291,0-4.154-1.868-4.154-4.149V22.472z M67.886,23.105
	c2.119-0.867,4.555,0.134,5.429,2.247l6.352,15.345c0.873,2.108-0.134,4.544-2.252,5.422l-1.586,0.317
	c-1.629,0-3.169-0.961-3.837-2.575l-6.351-15.339C64.766,26.404,65.773,23.979,67.886,23.105z M16.146,101.38
	c0-2.291,1.857-4.154,4.154-4.154h16.607c2.286,0,4.154,1.864,4.154,4.154c0,2.28-1.869,4.15-4.154,4.15H20.3
	C18.009,105.53,16.146,103.66,16.146,101.38z M43.71,127.509l-15.356,6.363l-1.585,0.312c-1.629,0-3.181-0.968-3.837-2.569
	c-0.874-2.125,0.133-4.55,2.252-5.418l15.356-6.363c2.108-0.878,4.55,0.135,5.422,2.249C46.824,124.205,45.829,126.63,43.71,127.509
	z M45.951,77.599c-0.661,1.591-2.213,2.559-3.837,2.559l-1.585-0.323l-15.345-6.351c-2.119-0.891-3.125-3.315-2.247-5.445
	c0.884-2.119,3.326-3.109,5.428-2.241L43.71,72.16C45.829,73.039,46.835,75.463,45.951,77.599z M52.681,58.728L40.945,46.977
	c-1.619-1.618-1.619-4.249,0-5.874c1.619-1.613,4.244-1.613,5.874,0.011l11.734,11.74c1.619,1.629,1.619,4.255,0,5.873
	c-0.812,0.807-1.879,1.213-2.942,1.213C54.549,59.941,53.487,59.535,52.681,58.728z M141.188,162.282c0,2.29-1.87,4.153-4.149,4.153
	H62.291c-2.291,0-4.154-1.863-4.154-4.153v-24.918c0-2.291,1.863-4.153,4.154-4.153h74.749c2.279,0,4.149,1.862,4.149,4.153V162.282
	L141.188,162.282z M113.924,91.448c1.465,2.469,2.355,5.316,2.355,8.387c0,9.155-7.449,16.607-16.615,16.607
	c-9.159,0-16.611-7.452-16.611-16.607s7.452-16.607,16.611-16.607c3.07,0,5.913,0.89,8.386,2.347l38.588-38.586
	c1.624-1.624,4.255-1.624,5.873,0c1.623,1.618,1.623,4.248,0,5.867L113.924,91.448z M176.379,131.614
	c-0.656,1.597-2.213,2.58-3.825,2.58l-1.592-0.322l-15.349-6.363c-2.114-0.879-3.117-3.31-2.247-5.427
	c0.867-2.109,3.326-3.127,5.429-2.249l15.349,6.363C176.269,127.064,177.269,129.506,176.379,131.614z M178.561,103.994
	l-16.607-0.011c-2.292,0-4.149-1.857-4.149-4.149c0-2.291,1.87-4.154,4.149-4.154h0.011l16.597,0.006
	c2.29,0.01,4.147,1.868,4.147,4.16C182.708,102.137,180.851,103.994,178.561,103.994z"/>
</svg>
