<?xml version="1.0" encoding="utf-8"?>
<!-- Generator: Adobe Illustrator 16.0.0, SVG Export Plug-In . SVG Version: 6.00 Build 0)  -->
<!DOCTYPE svg PUBLIC "-//W3C//DTD SVG 1.1//EN" "http://www.w3.org/Graphics/SVG/1.1/DTD/svg11.dtd">
<svg version="1.1" id="Layer_1" xmlns="http://www.w3.org/2000/svg" xmlns:xlink="http://www.w3.org/1999/xlink" x="0px" y="0px"
	 width="200px" height="200px" viewBox="0 0 200 200" enable-background="new 0 0 200 200" xml:space="preserve">
<g>
</g>
<g>
	<g>
		<linearGradient id="SVGID_1_" gradientUnits="userSpaceOnUse" x1="1.7036" y1="108.7852" x2="199.3379" y2="108.7852">
			<stop  offset="0" style="stop-color:#FBAC18"/>
			<stop  offset="0.9409" style="stop-color:#F26226"/>
		</linearGradient>
		<path fill="url(#SVGID_1_)" d="M158.417,188.598h-18.988l-3.86-11.401H65.465l-3.86,11.401H42.622c-3.207,0-5.79,2.549-5.79,5.701
			c0,3.147,2.583,5.701,5.79,5.701h115.795c3.202,0,5.79-2.554,5.79-5.701C164.207,191.146,161.619,188.598,158.417,188.598z
			 M158.417,51.776c-3.192,0-5.79,2.554-5.79,5.701c0,3.142,2.598,5.7,5.79,5.7c3.197,0,5.79-2.558,5.79-5.7
			C164.207,54.33,161.614,51.776,158.417,51.776z M181.577,17.571H19.074c-9.58,0-17.37,7.67-17.37,17.103v96.916h35.128v-17.107
			c0-3.147,2.583-5.696,5.79-5.696h8.942c0.599-1.663,1.282-3.286,2.059-4.886l-6.329-6.234c-2.257-2.227-2.257-5.834,0-8.062
			l16.38-16.123c2.257-2.227,5.919-2.227,8.185,0l6.334,6.236c1.618-0.763,3.266-1.445,4.958-2.029v-8.809
			c0-3.157,2.583-5.702,5.791-5.702h23.159c3.197,0,5.79,2.544,5.79,5.702v8.809c1.683,0.584,3.337,1.267,4.959,2.029l6.329-6.236
			c2.262-2.227,5.923-2.227,8.191,0l16.369,16.123c2.266,2.227,2.266,5.835,0,8.062l-6.324,6.234c0.771,1.6,1.455,3.223,2.059,4.886
			h8.942c3.202,0,5.79,2.549,5.79,5.696v17.107h35.131V34.673C199.338,25.241,191.152,17.571,181.577,17.571z M158.417,74.58
			c-9.576,0-17.365-7.675-17.365-17.103c0-9.432,7.789-17.103,17.365-17.103s17.37,7.671,17.37,17.103
			C175.787,66.904,167.993,74.58,158.417,74.58z M83.152,125.888c0,1.97,0.456,3.87,1.119,5.701h32.493
			c0.663-1.831,1.128-3.731,1.128-5.701c0-9.432-7.799-17.103-17.369-17.103C90.941,108.785,83.152,116.456,83.152,125.888z
			 M61.447,115.911c-0.664,2.513-2.97,4.275-5.612,4.275h-7.423v11.402h23.917c-0.39-1.881-0.756-3.766-0.756-5.701
			c0-15.717,12.985-28.503,28.95-28.503c15.954,0,28.949,12.787,28.949,28.503c0,1.936-0.376,3.82-0.762,5.701h23.917v-11.402
			h-7.428c-2.643,0-4.949-1.763-5.612-4.275c-0.92-3.533-2.36-6.958-4.285-10.164c-1.335-2.237-0.97-5.088,0.892-6.924l5.265-5.191
			l-8.186-8.056l-5.266,5.185c-1.87,1.841-4.771,2.207-7.042,0.876c-3.25-1.891-6.714-3.315-10.313-4.22
			c-2.559-0.654-4.341-2.925-4.341-5.523V74.58H94.732v7.315c0,2.598-1.792,4.869-4.346,5.523c-3.598,0.905-7.066,2.329-10.313,4.22
			c-2.266,1.331-5.171,0.965-7.037-0.876l-5.275-5.185l-8.186,8.056l5.266,5.191c1.866,1.836,2.232,4.687,0.891,6.924
			C63.813,108.953,62.368,112.378,61.447,115.911z M1.704,148.691c0,9.428,7.79,17.102,17.37,17.102h162.503
			c9.575,0,17.761-7.674,17.761-17.102v-5.701H1.704V148.691z"/>
	</g>
</g>
</svg>
