<?xml version="1.0" encoding="utf-8"?>
<!-- Generator: Adobe Illustrator 16.0.0, SVG Export Plug-In . SVG Version: 6.00 Build 0)  -->
<!DOCTYPE svg PUBLIC "-//W3C//DTD SVG 1.1//EN" "http://www.w3.org/Graphics/SVG/1.1/DTD/svg11.dtd">
<svg version="1.1" id="Layer_1" xmlns="http://www.w3.org/2000/svg" xmlns:xlink="http://www.w3.org/1999/xlink" x="0px" y="0px"
	 width="200px" height="200px" viewBox="0 0 200 200" enable-background="new 0 0 200 200" xml:space="preserve">
<g>
</g>
<g>
	<g>
		<linearGradient id="SVGID_1_" gradientUnits="userSpaceOnUse" x1="0" y1="100.0195" x2="200.0049" y2="100.0195">
			<stop  offset="0" style="stop-color:#FBAC18"/>
			<stop  offset="0.9409" style="stop-color:#F26226"/>
		</linearGradient>
		<path fill="url(#SVGID_1_)" d="M129.123,6.021c-3.358-5.741-10.774-7.657-16.493-4.396c-5.758,3.299-7.732,10.625-4.403,16.339
			l56.893,97.56c3.331,5.714,10.722,7.683,16.484,4.39c5.773-3.304,7.741-10.597,4.398-16.328L129.123,6.021z M98.241,29.804
			c-9.607,19.291-24.822,35.993-42.575,48.083l30.949,53.076c19.451-9.171,41.471-14.201,63.149-12.802l3.091,0.207L99.606,27.053
			L98.241,29.804z M45.592,84.492L9.041,105.377c-8.639,4.938-11.621,15.899-6.601,24.506l12.082,20.723
			c5,8.568,16.06,11.548,24.733,6.588l36.552-20.892L45.592,84.492z M48.054,124.532L37.613,130.5
			c-2.886,1.651-6.574,0.668-8.242-2.19c-1.669-2.865-0.684-6.523,2.2-8.167l10.441-5.97c2.886-1.649,6.574-0.667,8.242,2.197
			C51.922,119.23,50.938,122.883,48.054,124.532z M103.941,136.796c-3.839,1.302-7.583,2.821-11.281,4.524l5.152,8.856
			c1.668,2.843,0.702,6.49-2.198,8.161l-10.21,5.84l-8.782-14.532L55.74,161.589l19.605,32.433
			c3.305,5.687,10.706,7.685,16.477,4.385c5.763-3.294,7.735-10.619,4.403-16.333l-4.612-7.63l10.044-5.741
			c8.674-4.959,11.604-15.931,6.602-24.494L103.941,136.796z M155.118,32.403c3.223,0.857,6.524-1.031,7.386-4.221l3.111-11.548
			c0.86-3.196-1.053-6.468-4.273-7.331c-3.223-0.862-6.525,1.025-7.385,4.216l-3.112,11.559
			C149.984,28.264,151.896,31.546,155.118,32.403z M195.525,67.924l-11.659-3.104c-3.22-0.857-6.525,1.025-7.383,4.216
			c-0.859,3.196,1.051,6.473,4.273,7.331l11.656,3.104c3.221,0.857,6.525-1.031,7.386-4.222
			C200.659,72.06,198.745,68.781,195.525,67.924z M179.897,49.567l14.771-8.438c2.884-1.649,3.866-5.307,2.197-8.172
			c-1.668-2.854-5.356-3.842-8.243-2.192l-14.767,8.443c-2.885,1.649-3.869,5.302-2.198,8.167
			C173.326,50.234,177.013,51.217,179.897,49.567z"/>
	</g>
</g>
</svg>
