<?xml version="1.0" encoding="utf-8"?>
<!-- Generator: Adobe Illustrator 16.0.0, SVG Export Plug-In . SVG Version: 6.00 Build 0)  -->
<!DOCTYPE svg PUBLIC "-//W3C//DTD SVG 1.1//EN" "http://www.w3.org/Graphics/SVG/1.1/DTD/svg11.dtd">
<svg version="1.1" id="Layer_1" xmlns="http://www.w3.org/2000/svg" xmlns:xlink="http://www.w3.org/1999/xlink" x="0px" y="0px"
	 width="200px" height="200px" viewBox="0 0 200 200" enable-background="new 0 0 200 200" xml:space="preserve">
<g>
</g>
<g>
	<g>
		<linearGradient id="SVGID_1_" gradientUnits="userSpaceOnUse" x1="1.999" y1="101.166" x2="199.668" y2="101.166">
			<stop  offset="0" style="stop-color:#FBAC18"/>
			<stop  offset="0.9409" style="stop-color:#F26226"/>
		</linearGradient>
		<path fill="url(#SVGID_1_)" d="M28.14,72.467c5.68-21,22.068-37.642,42.916-43.688V16.794
			c-26.97,6.508-48.229,27.828-54.649,54.831c1.241-0.155,2.505-0.236,3.788-0.236C22.948,71.39,25.611,71.763,28.14,72.467z
			 M173.523,72.467c2.533-0.704,5.194-1.077,7.95-1.077c1.28,0,2.547,0.081,3.785,0.236c-6.419-27.003-27.678-48.323-54.647-54.828
			v11.981C151.455,34.825,167.841,51.473,173.523,72.467z M88.427,38.723h24.812c3.199,0,5.791-2.59,5.791-5.791V8.124
			c0-3.201-2.592-5.791-5.791-5.791H88.427c-3.199,0-5.791,2.59-5.791,5.791v24.808C82.636,36.133,85.228,38.723,88.427,38.723z
			 M38.392,101.166c0-10.031-8.164-18.198-18.196-18.198c-10.034,0-18.197,8.167-18.197,18.198s8.163,18.196,18.197,18.196
			C30.228,119.362,38.392,111.197,38.392,101.166z M181.47,82.968c-10.036,0-18.198,8.167-18.198,18.198s8.162,18.196,18.198,18.196
			c10.034,0,18.198-8.165,18.198-18.196S191.504,82.968,181.47,82.968z M106.624,49.792v71.342
			c7.203,2.424,12.405,9.236,12.405,17.249c0,10.033-8.164,18.196-18.196,18.196c-10.033,0-18.195-8.163-18.195-18.196
			c0-8.013,5.199-14.825,12.404-17.249V49.792l-61.056,91.582c-2.041,3.058-0.741,7.229,2.667,8.587
			c21.35,8.543,27.377,28.588,27.377,40.436v3.813c0,3.198,2.589,5.792,5.791,5.792h62.023c3.202,0,5.791-2.594,5.791-5.792v-3.813
			c0-11.828,5.981-31.876,27.375-40.436c3.409-1.36,4.706-5.535,2.669-8.587L106.624,49.792z"/>
	</g>
</g>
</svg>
