<?xml version="1.0" encoding="utf-8"?>
<!-- Generator: Adobe Illustrator 16.0.0, SVG Export Plug-In . SVG Version: 6.00 Build 0)  -->
<!DOCTYPE svg PUBLIC "-//W3C//DTD SVG 1.1//EN" "http://www.w3.org/Graphics/SVG/1.1/DTD/svg11.dtd">
<svg version="1.1" id="Layer_1" xmlns="http://www.w3.org/2000/svg" xmlns:xlink="http://www.w3.org/1999/xlink" x="0px" y="0px"
	 width="200px" height="200px" viewBox="0 0 200 200" enable-background="new 0 0 200 200" xml:space="preserve">
<g>
</g>
<g>
	<g>
		
			<linearGradient id="SVGID_1_" gradientUnits="userSpaceOnUse" x1="0" y1="99.998" x2="177.1699" y2="99.998" gradientTransform="matrix(1 0 0 1 12 0)">
			<stop  offset="0" style="stop-color:#FBAC18"/>
			<stop  offset="0.9409" style="stop-color:#F26226"/>
		</linearGradient>
		<path fill="url(#SVGID_1_)" d="M119.561,75.878c-3.32,0-6.017,2.65-6.017,5.931c0,3.282,2.696,5.937,6.017,5.937
			c3.324,0,6.015-2.655,6.015-5.937C125.575,78.528,122.885,75.878,119.561,75.878z M173.653,133.045
			c0-23.102,12.985-31.253,13.536-31.571c1.926-1.122,2.546-3.571,1.419-5.469c-1.139-1.885-3.621-2.512-5.552-1.384
			c-0.721,0.424-17.501,10.535-17.501,38.424c0,15.819,5.491,25.969,9.877,34.139c3.158,5.859,5.638,10.49,5.638,15.769
			c0,3.777-0.826,6.512-2.399,7.912c-1.632,1.406-3.729,1.194-3.751,1.194c-0.188-0.022-15.445-0.022-15.445-0.022
			c1.718-2.695,2.801-5.848,2.801-9.257L161.918,5.397c0-2.488-1.634-4.653-4.089-5.239c-2.44-0.609-4.939,0.541-6.128,2.728
			l-18.855,35.099H41.3L22.423,2.875c-1.188-2.176-3.767-3.303-6.233-2.717C13.758,0.766,12,2.909,12,5.397v177.366
			c0,9.508,7.923,17.158,17.56,17.158c0,0,139.306,0.079,145.662,0.079c1.97,0,5.524-0.42,8.66-3.069
			c3.499-2.991,5.277-7.695,5.277-14c0-7.276-3.202-13.191-6.591-19.485C178.402,155.672,173.653,146.873,173.653,133.045z
			 M54.709,95.737c-7.773,0-14.112-6.255-14.112-13.928c0-7.667,6.339-13.917,14.112-13.917c7.778,0,14.111,6.25,14.111,13.917
			C68.821,89.482,62.488,95.737,54.709,95.737z M94.221,111.74h-2.985l-0.341,5.558c-0.106,2.137-1.908,3.761-4.023,3.761h-0.229
			c-2.249-0.122-3.945-2.025-3.817-4.218l0.295-5.078H80.07c-2.243,0-4.045-1.841-4.045-4.034c0-2.215,1.803-4.057,4.045-4.057
			h14.151c2.249,0,4.051,1.842,4.051,4.057C98.271,109.922,96.447,111.74,94.221,111.74z M119.561,95.737
			c-7.773,0-14.113-6.255-14.113-13.928c0-7.667,6.34-13.917,14.113-13.917c7.8,0,14.111,6.25,14.111,13.917
			C133.672,89.482,127.36,95.737,119.561,95.737z M54.709,75.878c-3.32,0-6.015,2.65-6.015,5.931c0,3.282,2.695,5.937,6.015,5.937
			c3.325,0,6.015-2.655,6.015-5.937C60.725,78.528,58.035,75.878,54.709,75.878z"/>
	</g>
</g>
</svg>
