<?xml version="1.0" encoding="utf-8"?>
<!-- Generator: Adobe Illustrator 16.0.0, SVG Export Plug-In . SVG Version: 6.00 Build 0)  -->
<!DOCTYPE svg PUBLIC "-//W3C//DTD SVG 1.1//EN" "http://www.w3.org/Graphics/SVG/1.1/DTD/svg11.dtd">
<svg version="1.1" id="Layer_1" xmlns="http://www.w3.org/2000/svg" xmlns:xlink="http://www.w3.org/1999/xlink" x="0px" y="0px"
	 width="200px" height="200px" viewBox="0 0 200 200" enable-background="new 0 0 200 200" xml:space="preserve">
<g>
</g>
<g>
	<g>
		<linearGradient id="SVGID_1_" gradientUnits="userSpaceOnUse" x1="0" y1="107.6777" x2="200.0313" y2="107.6777">
			<stop  offset="0" style="stop-color:#FBAC18"/>
			<stop  offset="0.9409" style="stop-color:#F26226"/>
		</linearGradient>
		<path fill="url(#SVGID_1_)" d="M158.617,188.46h-19.223l-3.905-11.54H64.538l-3.906,11.54H41.413c-3.241,0-5.86,2.58-5.86,5.771
			c0,3.185,2.62,5.77,5.86,5.77h117.205c3.236,0,5.862-2.585,5.862-5.77C164.479,191.04,161.854,188.46,158.617,188.46z
			 M158.617,49.977c-3.235,0-5.858,2.585-5.858,5.77c0,3.181,2.623,5.771,5.858,5.771c3.236,0,5.862-2.59,5.862-5.771
			C164.479,52.562,161.854,49.977,158.617,49.977z M182.059,15.356H17.581C7.883,15.356,0,23.12,0,32.666v98.093h35.552v-17.31
			c0-3.187,2.62-5.771,5.86-5.771h9.056c0.601-1.683,1.297-3.325,2.083-4.938l-6.406-6.316c-2.289-2.249-2.289-5.905,0-8.159
			L62.72,71.946c2.289-2.254,5.996-2.254,8.285,0l6.411,6.312c1.643-0.772,3.311-1.459,5.019-2.054v-8.916
			c0-3.19,2.62-5.77,5.86-5.77h23.441c3.235,0,5.86,2.58,5.86,5.77v8.916c1.702,0.595,3.376,1.282,5.019,2.054l6.412-6.312
			c2.283-2.254,5.995-2.254,8.285,0l16.572,16.318c2.289,2.254,2.289,5.911,0,8.159l-6.405,6.316
			c0.787,1.613,1.477,3.256,2.084,4.938h9.054c3.236,0,5.862,2.585,5.862,5.771v17.31h35.552V32.666
			C200.031,23.12,191.752,15.356,182.059,15.356z M158.617,73.057c-9.694,0-17.579-7.769-17.579-17.311
			c0-9.546,7.885-17.31,17.579-17.31c9.693,0,17.583,7.764,17.583,17.31C176.2,65.289,168.311,73.057,158.617,73.057z
			 M82.435,124.988c0,1.994,0.466,3.917,1.137,5.771h32.887c0.666-1.854,1.138-3.776,1.138-5.771c0-9.546-7.89-17.311-17.581-17.311
			C90.319,107.678,82.435,115.442,82.435,124.988z M60.466,114.891c-0.666,2.544-3,4.327-5.675,4.327h-7.518v11.541h24.213
			c-0.396-1.903-0.772-3.813-0.772-5.771c0-15.907,13.143-28.85,29.302-28.85c16.153,0,29.301,12.943,29.301,28.85
			c0,1.958-0.381,3.867-0.771,5.771h24.213v-11.541h-7.523c-2.669,0-5.01-1.783-5.675-4.327c-0.938-3.576-2.39-7.042-4.338-10.288
			c-1.356-2.259-0.987-5.149,0.902-7.001l5.328-5.255l-8.284-8.159l-5.334,5.249c-1.894,1.864-4.829,2.24-7.123,0.887
			c-3.296-1.914-6.802-3.356-10.438-4.273c-2.589-0.661-4.397-2.956-4.397-5.59v-7.403H94.155v7.403c0,2.634-1.809,4.929-4.397,5.59
			c-3.637,0.917-7.147,2.359-10.438,4.273c-2.29,1.353-5.229,0.977-7.123-0.887l-5.334-5.249l-8.29,8.159l5.33,5.255
			c1.893,1.853,2.264,4.743,0.906,7.001C62.86,107.849,61.403,111.314,60.466,114.891z M0,148.068
			c0,9.543,7.883,17.311,17.581,17.311h164.478c9.693,0,17.973-7.768,17.973-17.311v-5.77H0V148.068z"/>
	</g>
</g>
</svg>
