<?xml version="1.0" encoding="utf-8"?>
<!-- Generator: Adobe Illustrator 16.0.0, SVG Export Plug-In . SVG Version: 6.00 Build 0)  -->
<!DOCTYPE svg PUBLIC "-//W3C//DTD SVG 1.1//EN" "http://www.w3.org/Graphics/SVG/1.1/DTD/svg11.dtd">
<svg version="1.1" id="Layer_1" xmlns="http://www.w3.org/2000/svg" xmlns:xlink="http://www.w3.org/1999/xlink" x="0px" y="0px"
	 width="200px" height="200px" viewBox="0 0 200 200" enable-background="new 0 0 200 200" xml:space="preserve">
<linearGradient id="SVGID_1_" gradientUnits="userSpaceOnUse" x1="1.7837" y1="100.0352" x2="191.5098" y2="100.0352">
	<stop  offset="0" style="stop-color:#FFB003"/>
	<stop  offset="1" style="stop-color:#FF611D"/>
</linearGradient>
<path display="none" fill="url(#SVGID_1_)" d="M39.718,84.583c-0.359-3.052-1.441-5.889-3.068-8.335l145.835-48.872L174.831,4.36
	c-1.112-3.344-4.718-5.146-8.046-4.031L8.147,53.497c-3.33,1.112-5.132,4.73-4.02,8.078L7.88,72.853
	c-3.747,3.497-6.096,8.476-6.096,14c0,7.158,3.943,13.407,9.759,16.682v90.153c0,3.522,2.848,6.383,6.36,6.383h167.246
	c3.509,0,6.361-2.86,6.361-6.383V84.583H39.718z M132.674,19.268l19.308-6.467l-4.649,18.846l-19.309,6.475L132.674,19.268z
	 M84.968,35.251l19.312-6.464l-4.647,18.848L80.323,54.11L84.968,35.251z M20.82,96.588c-5.345,0-9.699-4.365-9.699-9.735
	c0-5.363,4.354-9.732,9.699-9.732c5.348,0,9.7,4.369,9.7,9.732C30.521,92.224,26.168,96.588,20.82,96.588L20.82,96.588z
	 M37.268,51.243l19.312-6.472l-4.65,18.849l-19.307,6.471L37.268,51.243z M56.235,106.143H35.882l10.352-16.398h20.355
	L56.235,106.143z M96.523,89.744h20.356l-10.355,16.398H86.172L96.523,89.744z M91.529,169.008v-43.267l34.329,21.634
	L91.529,169.008z M156.815,106.143h-20.354l10.352-16.398h20.357L156.815,106.143z M156.815,106.143"/>
<g>
	<g>
		<linearGradient id="SVGID_2_" gradientUnits="userSpaceOnUse" x1="0.9893" y1="100.5308" x2="199.834" y2="100.5308">
			<stop  offset="0" style="stop-color:#56BDFD"/>
			<stop  offset="1" style="stop-color:#3D50EF"/>
		</linearGradient>
		<path fill="url(#SVGID_2_)" d="M105.847,200h23.303v-11.668h-23.303V200z M0.989,200h23.302v-11.668H0.989V200z M35.941,200
			h23.302v-11.668H35.941V200z M70.894,200h23.303v-11.668H70.894V200z M196.455,188.332l-33.127-33.096v8.595h-8.083l24.277,24.501
			H140.8V200h59.034v-11.668H196.455z M85.924,94.221H36.523l23.187,23.331h49.516L85.924,94.221z M50.582,58.829H4.794
			c1.866,4.315,4.661,8.397,8.274,11.9l11.805,11.823h49.398L50.582,58.829z M82.544,24.798L70.74,12.979
			c-3.496-3.502-7.573-6.304-11.886-8.166v45.733l23.69,23.722V24.798z M117.498,59.917l-23.301-23.45v49.465l23.301,23.339V59.917z
			 M129.149,71.586v49.351l34.179,34.3v-49.35L129.149,71.586z M71.359,129.217l34.372,34.614h49.515l-34.369-34.614H71.359z
			 M38.931,47.164L25.415,33.628l8.273-8.284l13.515,13.534V1.427C35.087-0.208,22.389,3.642,13.068,12.979
			C3.747,22.309-0.1,35.025,1.416,47.164H38.931z"/>
	</g>
</g>
</svg>
