<?xml version="1.0" encoding="utf-8"?>
<!-- Generator: Adobe Illustrator 16.0.0, SVG Export Plug-In . SVG Version: 6.00 Build 0)  -->
<!DOCTYPE svg PUBLIC "-//W3C//DTD SVG 1.1//EN" "http://www.w3.org/Graphics/SVG/1.1/DTD/svg11.dtd">
<svg version="1.1" id="Layer_1" xmlns="http://www.w3.org/2000/svg" xmlns:xlink="http://www.w3.org/1999/xlink" x="0px" y="0px"
	 width="200px" height="200px" viewBox="0 0 200 200" enable-background="new 0 0 200 200" xml:space="preserve">
<g>
</g>
<g>
	<g>
		<linearGradient id="SVGID_1_" gradientUnits="userSpaceOnUse" x1="0.833" y1="108.3984" x2="199.7383" y2="108.3984">
			<stop  offset="0" style="stop-color:#FBAC18"/>
			<stop  offset="0.9409" style="stop-color:#F26226"/>
		</linearGradient>
		<path fill="url(#SVGID_1_)" d="M114.215,118.715c-9.789,0-17.722,7.861-17.722,17.563c0,9.696,7.933,17.559,17.722,17.559
			c9.783,0,17.722-7.862,17.722-17.559C131.937,126.576,123.998,118.715,114.215,118.715z M170.949,37.868V23.822
			c0-3.875-3.169-7.024-7.085-7.024H7.918c-3.916,0-7.085,3.149-7.085,7.024v140.489c0,3.875,3.169,7.019,7.085,7.019h14.179V51.915
			c0-7.754,6.35-14.047,14.18-14.047H170.949z M36.277,23.822h7.085v7.023h-7.085V23.822z M15.013,30.845H7.918v-7.023h7.095V30.845
			z M29.188,30.845h-7.091v-7.023h7.091V30.845z M151.912,126.617c-0.904-3.486-2.299-6.829-4.146-9.927
			c-0.822-1.381-0.597-3.139,0.548-4.272l5.991-5.94l-10.02-9.937l-6,5.938c-1.146,1.136-2.914,1.36-4.305,0.542
			c-3.128-1.83-6.507-3.21-10.024-4.11c-1.564-0.398-2.657-1.793-2.657-3.393v-8.41h-14.175v8.41c0,1.599-1.094,2.995-2.658,3.393
			c-3.517,0.9-6.89,2.28-10.019,4.11c-1.396,0.818-3.17,0.594-4.314-0.542l-5.991-5.938l-10.03,9.937l5.997,5.94
			c1.14,1.134,1.365,2.882,0.547,4.262c-0.675,1.14-1.288,2.311-1.841,3.517c-0.961,2.065-1.737,4.229-2.31,6.437
			c-0.399,1.549-1.81,2.634-3.425,2.634h-8.485v14.045h8.485c1.615,0,3.025,1.084,3.425,2.638c0.91,3.486,2.306,6.829,4.151,9.932
			c0.818,1.375,0.593,3.135-0.547,4.269l-5.997,5.939l10.03,9.938l5.991-5.939c1.145-1.136,2.918-1.361,4.314-0.544
			c3.128,1.83,6.501,3.211,10.019,4.11c1.564,0.399,2.658,1.799,2.658,3.399v8.388H121.3v-8.403c0-1.604,1.093-3,2.657-3.394
			c3.518-0.904,6.896-2.285,10.024-4.114c1.391-0.813,3.159-0.595,4.305,0.536l6,5.944l10.02-9.937l-5.991-5.939
			c-1.145-1.131-1.37-2.889-0.548-4.268c1.847-3.099,3.241-6.442,4.146-9.928c0.41-1.554,1.82-2.638,3.436-2.638h8.486v-14.047
			h-8.486C153.732,129.255,152.322,128.172,151.912,126.617z M114.215,160.865c-13.705,0-24.813-11.01-24.813-24.587
			c0-13.581,11.107-24.586,24.813-24.586c13.699,0,24.807,11.005,24.807,24.586C139.007,149.844,127.909,160.845,114.215,160.865z
			 M198.808,51.43c-0.03-3.879-3.225-6.998-7.136-6.978L35.725,45.47c-3.915,0.026-7.064,3.194-7.044,7.074l0.936,140.483
			c0.026,3.874,3.22,6.998,7.13,6.973l155.947-1.012c3.915-0.031,7.068-3.195,7.044-7.074L198.808,51.43z M64.596,51.986h7.084
			v7.024h-7.084V51.986z M50.416,51.986h7.089v7.024h-7.089V51.986z M36.242,51.986h7.089v7.024h-7.089V51.986z M36.242,83.597
			h28.354v7.024H36.242V83.597z M36.242,104.668v-7.023h21.264v7.023H36.242z M167.37,150.325h-9.363
			c-0.746,2.31-1.688,4.55-2.802,6.707l6.625,6.562c1.379,1.37,1.379,3.594,0,4.964l-15.038,14.901c-1.387,1.37-3.631,1.37-5.01,0
			l-6.626-6.559c-2.177,1.099-4.44,2.029-6.768,2.774v9.283c0,1.938-1.584,3.512-3.547,3.512h-21.265
			c-1.952,0-3.542-1.573-3.542-3.512v-9.283c-2.325-0.745-4.59-1.676-6.773-2.774l-6.614,6.559c-1.385,1.37-3.629,1.37-5.009,0
			L66.6,168.558c-1.385-1.37-1.385-3.594,0-4.964l6.625-6.562c-1.125-2.157-2.055-4.397-2.806-6.707h-9.37
			c-1.952,0-3.542-1.575-3.542-3.513v-21.074c0-1.938,1.59-3.513,3.542-3.513h9.37c0.546-1.691,1.201-3.348,1.947-4.968
			c0.271-0.588,0.552-1.16,0.849-1.738l-6.614-6.559c-1.385-1.375-1.385-3.598,0-4.968l15.039-14.901
			c1.38-1.375,3.624-1.375,5.009,0l6.614,6.558c2.183-1.104,4.448-2.029,6.773-2.77v-9.283c0-1.943,1.59-3.518,3.542-3.518h21.265
			c1.963,0,3.547,1.575,3.547,3.518v9.283c2.327,0.741,4.591,1.666,6.768,2.77l6.626-6.558c1.379-1.375,3.623-1.375,5.01,0
			l15.038,14.901c1.379,1.37,1.379,3.593,0,4.968l-6.625,6.559c1.114,2.151,2.056,4.401,2.802,6.706h9.363
			c1.964,0,3.549,1.575,3.549,3.513v21.074C170.919,148.75,169.334,150.325,167.37,150.325z M192.183,192.47h-21.264v-7.028h21.264
			V192.47z M192.183,73.058H36.242v-7.023h155.941V73.058z"/>
	</g>
</g>
</svg>
