<?xml version="1.0" encoding="utf-8"?>
<!-- Generator: Adobe Illustrator 16.0.0, SVG Export Plug-In . SVG Version: 6.00 Build 0)  -->
<!DOCTYPE svg PUBLIC "-//W3C//DTD SVG 1.1//EN" "http://www.w3.org/Graphics/SVG/1.1/DTD/svg11.dtd">
<svg version="1.1" id="Layer_1" xmlns="http://www.w3.org/2000/svg" xmlns:xlink="http://www.w3.org/1999/xlink" x="0px" y="0px"
	 width="200px" height="200px" viewBox="0 0 200 200" enable-background="new 0 0 200 200" xml:space="preserve">
<g>
</g>
<g>
	<g>
		<linearGradient id="SVGID_1_" gradientUnits="userSpaceOnUse" x1="6.8315" y1="98.686" x2="200.8057" y2="98.686">
			<stop  offset="0" style="stop-color:#FBAC18"/>
			<stop  offset="0.9409" style="stop-color:#F26226"/>
		</linearGradient>
		<path fill="url(#SVGID_1_)" d="M194.147,156.87l-75.411-75.413L86.59,113.604l75.411,75.412c8.876,8.873,23.269,8.873,32.146,0
			C203.022,180.134,203.022,165.748,194.147,156.87z M123.909,126.814l8.038-8.037l8.035,8.037l-8.035,8.039L123.909,126.814z
			 M139.982,142.891l8.037-8.037l8.036,8.037l-8.036,8.033L139.982,142.891z M164.094,166.994l-8.038-8.033l8.038-8.037l8.035,8.037
			L164.094,166.994z M71.613,114.705l-6.334,6.444c-15.065-8.113-34.191-5.991-46.915,6.731
			c-12.723,12.724-14.846,31.85-6.73,46.912l22.803-22.798l16.074,16.072L27.708,190.87c15.066,8.114,34.191,5.989,46.915-6.728
			c12.724-12.729,14.847-31.848,6.729-46.917l6.335-6.446L71.613,114.705z M135.443,82.091l6.913-5.872
			c15.067,8.12,34.192,5.996,46.916-6.728c12.724-12.727,14.846-31.851,6.73-46.917l-22.805,22.803l-16.072-16.071L179.93,6.502
			c-15.065-8.114-34.191-5.99-46.916,6.732c-12.722,12.721-14.846,31.848-6.729,46.912l-6.915,5.874L135.443,82.091z M51.375,62.316
			L86.59,97.534l16.073-16.077L67.448,46.242l-4.192-20.98L21.042,1.813L6.946,15.911l23.448,42.212L51.375,62.316z"/>
	</g>
</g>
</svg>
