<?xml version="1.0" encoding="utf-8"?>
<!-- Generator: Adobe Illustrator 19.0.0, SVG Export Plug-In . SVG Version: 6.00 Build 0)  -->
<svg version="1.0" id="Layer_1" xmlns="http://www.w3.org/2000/svg" xmlns:xlink="http://www.w3.org/1999/xlink" x="0px" y="0px"
	 viewBox="0 0 200 200" style="enable-background:new 0 0 200 200;" xml:space="preserve">
<style type="text/css">
	.st0{fill:url(#XMLID_8_);}
</style>
<g id="XMLID_2_">
	<linearGradient id="XMLID_8_" gradientUnits="userSpaceOnUse" x1="1.1992" y1="100" x2="198.8008" y2="100">
		<stop  offset="0" style="stop-color:#67B8E6"/>
		<stop  offset="1" style="stop-color:#4C5EAA"/>
	</linearGradient>
	<path id="XMLID_3_" class="st0" d="M60.5,159.3c-10.9,0-19.8,8.9-19.8,19.7c0,10.9,8.9,19.8,19.8,19.8s19.7-8.9,19.7-19.8
		C80.2,168.2,71.3,159.3,60.5,159.3L60.5,159.3z M1.2,1.2V21H21L56.5,96l-13.8,23.7c-1,2.9-2,6.9-2,9.8c0,10.9,8.9,19.8,19.8,19.8
		H179v-19.8H64.4c-1,0-2-1-2-2v-1l8.9-16.8h73.1c7.9,0,13.8-4,16.8-9.9l35.6-64.2c2-2,2-3,2-5c0-5.9-4-9.8-9.9-9.8H42.7L33.8,1.2
		H1.2z M159.3,159.3c-10.9,0-19.8,8.9-19.8,19.7c0,10.9,8.9,19.8,19.8,19.8S179,189.9,179,179C179,168.2,170.1,159.3,159.3,159.3
		L159.3,159.3z M159.3,159.3"/>
</g>
</svg>
