<?xml version="1.0" encoding="utf-8"?>
<!-- Generator: Adobe Illustrator 16.0.0, SVG Export Plug-In . SVG Version: 6.00 Build 0)  -->
<!DOCTYPE svg PUBLIC "-//W3C//DTD SVG 1.1//EN" "http://www.w3.org/Graphics/SVG/1.1/DTD/svg11.dtd">
<svg version="1.1" id="Layer_1" xmlns="http://www.w3.org/2000/svg" xmlns:xlink="http://www.w3.org/1999/xlink" x="0px" y="0px"
	 width="200px" height="200px" viewBox="0 0 200 200" enable-background="new 0 0 200 200" xml:space="preserve">
<g>
</g>
<g>
	<g>
		
			<linearGradient id="SVGID_1_" gradientUnits="userSpaceOnUse" x1="0.8335" y1="100.3223" x2="172.5" y2="100.3223" gradientTransform="matrix(1 0 0 1 10 0)">
			<stop  offset="0" style="stop-color:#FBAC18"/>
			<stop  offset="0.9409" style="stop-color:#F26226"/>
		</linearGradient>
		<path fill="url(#SVGID_1_)" d="M96.667,13.104c3.618,0,8.847,9.015,12.8,24.919h12.72c-4.986-21.756-13.52-37.379-25.52-37.379
			c-11.989,0-20.539,15.623-25.509,37.379h12.708C87.819,22.12,93.049,13.104,96.667,13.104z M157.977,50.484h-33.433
			c1.304,8.469,2.169,17.472,2.536,26.66c3.737,2.132,6.37,6.047,6.37,10.719c0,6.89-5.483,12.459-12.26,12.459
			c-6.775,0-12.258-5.576-12.258-12.459c0-4.418,2.389-8.117,5.802-10.318c-0.406-10.069-1.363-19.128-2.683-27.061H81.276
			c-1.303,7.933-2.261,16.986-2.667,27.05c3.402,2.212,5.798,5.91,5.798,10.329c0,6.89-5.489,12.459-12.265,12.459
			c-6.776,0-12.265-5.576-12.265-12.459c0-4.672,2.634-8.587,6.376-10.719c0.368-9.188,1.228-18.19,2.537-26.66H35.353L10.833,200
			H182.5L157.977,50.484z"/>
	</g>
</g>
</svg>
