<?xml version="1.0" encoding="utf-8"?>
<!-- Generator: Adobe Illustrator 16.0.0, SVG Export Plug-In . SVG Version: 6.00 Build 0)  -->
<!DOCTYPE svg PUBLIC "-//W3C//DTD SVG 1.1//EN" "http://www.w3.org/Graphics/SVG/1.1/DTD/svg11.dtd">
<svg version="1.1" id="Layer_1" xmlns="http://www.w3.org/2000/svg" xmlns:xlink="http://www.w3.org/1999/xlink" x="0px" y="0px"
	 width="200px" height="200px" viewBox="0 0 200 200" enable-background="new 0 0 200 200" xml:space="preserve">
<g>
</g>
<g>
	<g>
		<linearGradient id="SVGID_1_" gradientUnits="userSpaceOnUse" x1="0.2031" y1="110.9434" x2="200" y2="110.9434">
			<stop  offset="0" style="stop-color:#FBAC18"/>
			<stop  offset="0.9409" style="stop-color:#F26226"/>
		</linearGradient>
		<path fill="url(#SVGID_1_)" d="M114.089,134.328H35.342v35.1h78.747V134.328z M0.203,198.658H200V81.695H0.203V198.658z
			 M125.796,181.113H23.636v-58.473h102.16V181.113z M176.568,181.113h-39.051v-11.686h39.051V181.113z M176.568,157.721h-39.051
			v-11.686h39.051V157.721z M176.568,134.328h-39.051v-11.688h39.051V134.328z M23.631,99.252h152.938v11.682H23.631V99.252z
			 M0.203,23.229v46.779H200V23.229H0.203z M35.347,52.457H23.631V40.77h11.716V52.457z M58.779,52.457H47.063V40.77h11.716V52.457z
			 M82.209,52.457H70.496V40.77h11.713V52.457z"/>
	</g>
</g>
</svg>
