<?xml version="1.0" encoding="utf-8"?>
<!-- Generator: Adobe Illustrator 16.0.0, SVG Export Plug-In . SVG Version: 6.00 Build 0)  -->
<!DOCTYPE svg PUBLIC "-//W3C//DTD SVG 1.1//EN" "http://www.w3.org/Graphics/SVG/1.1/DTD/svg11.dtd">
<svg version="1.1" id="Layer_1" xmlns="http://www.w3.org/2000/svg" xmlns:xlink="http://www.w3.org/1999/xlink" x="0px" y="0px"
	 width="200px" height="200px" viewBox="0 0 200 200" enable-background="new 0 0 200 200" xml:space="preserve">
<g>
</g>
<g>
	<g>
		<linearGradient id="SVGID_1_" gradientUnits="userSpaceOnUse" x1="1.6616" y1="110.2344" x2="200" y2="110.2344">
			<stop  offset="0" style="stop-color:#FBAC18"/>
			<stop  offset="0.9409" style="stop-color:#F26226"/>
		</linearGradient>
		<path fill="url(#SVGID_1_)" d="M47.622,79.238c7.598,0,13.765-6.136,13.765-13.711c0-7.565-6.167-13.709-13.765-13.709
			c-7.597,0-13.765,6.144-13.765,13.709C33.857,73.102,40.025,79.238,47.622,79.238z M61.387,133.78v-30.829
			c12.318-0.396,24.227-3.315,35.381-9.026c7.392-3.792,0.862-14.882-6.512-11.1c-9.567,4.909-19.729,7.086-30.234,7.308
			c-1.783-3.1-5.116-5.185-8.954-5.185h-6.882c-5.704,0-10.328,4.599-10.328,10.278v38.554c0,2.633,1.003,5.027,2.637,6.846
			c1.484,17.345,0.865,34.614-8.776,49.874c-4.451,7.04,6.714,13.479,11.138,6.485c10.218-16.154,11.973-34.462,10.792-52.918h0.39
			c4.133,12.971,5.916,26.256,6.047,39.97c0.083,8.281,12.985,8.29,12.9,0c-0.157-16.287-2.413-32.28-7.948-47.633
			C61.258,135.561,61.387,134.684,61.387,133.78z M1.662,20.469v96.603h28.293v-7.573H9.268V28.043h183.13v81.455H65.103v7.573H200
			V20.469H1.662z M65.103,129.697H200v-7.574H65.103V129.697z M29.955,122.123H1.662v7.574h28.293V122.123z M114.267,65.39
			c9.123,12.28,18.552,24.983,35.868,26.45l0.313-3.773c-15.596-1.32-24.504-13.322-33.114-24.938
			C105.221,46.817,92.7,29.949,62.4,45.171l1.721,3.386C91.549,34.769,102.08,48.955,114.267,65.39z M158.688,100.457l7.776-7.736
			l7.769,7.736L177,97.698l-7.758-7.74L177,82.217l-2.768-2.759l-7.769,7.731l-7.776-7.731l-2.768,2.759l7.763,7.741l-7.763,7.74
			L158.688,100.457z"/>
	</g>
</g>
</svg>
