<?xml version="1.0" encoding="utf-8"?>
<!-- Generator: Adobe Illustrator 16.0.0, SVG Export Plug-In . SVG Version: 6.00 Build 0)  -->
<!DOCTYPE svg PUBLIC "-//W3C//DTD SVG 1.1//EN" "http://www.w3.org/Graphics/SVG/1.1/DTD/svg11.dtd">
<svg version="1.1" id="Layer_1" xmlns="http://www.w3.org/2000/svg" xmlns:xlink="http://www.w3.org/1999/xlink" x="0px" y="0px"
	 width="200px" height="200px" viewBox="0 0 200 200" enable-background="new 0 0 200 200" xml:space="preserve">
<g>
</g>
<g>
	<g>
		<linearGradient id="SVGID_1_" gradientUnits="userSpaceOnUse" x1="1.5024" y1="108.3975" x2="200.4072" y2="108.3975">
			<stop  offset="0" style="stop-color:#FBAC18"/>
			<stop  offset="0.9409" style="stop-color:#F26226"/>
		</linearGradient>
		<path fill="url(#SVGID_1_)" d="M114.886,118.713c-9.789,0-17.725,7.861-17.725,17.557c0,9.697,7.936,17.56,17.725,17.56
			c9.784,0,17.72-7.862,17.72-17.56C132.605,126.574,124.67,118.713,114.886,118.713z M171.624,37.866V23.818
			c0-3.885-3.169-7.023-7.086-7.023H8.589c-3.915,0-7.087,3.139-7.087,7.023V164.3c0,3.885,3.172,7.026,7.087,7.026h14.178V51.913
			c0-7.755,6.349-14.047,14.177-14.047H171.624z M36.945,23.818h7.087v7.024h-7.087V23.818z M15.68,30.842h-7.09v-7.024h7.09V30.842
			z M29.856,30.842h-7.089v-7.024h7.089V30.842z M152.586,126.615c-0.906-3.486-2.301-6.829-4.147-9.932
			c-0.82-1.38-0.596-3.134,0.548-4.27l5.993-5.939l-10.024-9.937l-5.996,5.939c-1.145,1.137-2.917,1.355-4.311,0.543
			c-3.128-1.829-6.504-3.209-10.019-4.109c-1.565-0.4-2.661-1.796-2.661-3.394v-8.416h-14.174v8.416
			c0,1.598-1.093,2.994-2.658,3.394c-3.519,0.9-6.892,2.28-10.021,4.109c-1.392,0.813-3.163,0.594-4.309-0.543l-5.995-5.939
			l-10.025,9.937l5.994,5.939c1.14,1.136,1.365,2.883,0.546,4.264c-0.674,1.136-1.288,2.311-1.842,3.513
			c-0.961,2.07-1.732,4.231-2.305,6.44c-0.404,1.548-1.815,2.633-3.431,2.633h-8.485v14.045h8.485c1.616,0,3.026,1.085,3.431,2.638
			c0.908,3.486,2.303,6.831,4.147,9.934c0.82,1.375,0.593,3.133-0.546,4.267l-5.994,5.94l10.025,9.937l5.995-5.942
			c1.146-1.132,2.917-1.356,4.309-0.536c3.129,1.828,6.503,3.208,10.021,4.107c1.565,0.399,2.658,1.794,2.658,3.4v8.389h14.174
			v-8.403c0-1.606,1.096-3.001,2.661-3.4c3.515-0.898,6.891-2.285,10.019-4.111c1.394-0.817,3.166-0.598,4.311,0.54l5.996,5.937
			l10.024-9.937l-5.993-5.939c-1.144-1.123-1.368-2.881-0.548-4.261c1.847-3.104,3.241-6.447,4.147-9.935
			c0.405-1.547,1.815-2.631,3.43-2.631h8.486v-14.053h-8.486C154.401,129.248,152.991,128.165,152.586,126.615z M114.886,160.858
			c-13.705,0-24.812-11.006-24.812-24.589c0-13.58,11.107-24.581,24.812-24.581c13.699,0,24.807,11.001,24.807,24.581
			C139.678,149.844,128.579,160.844,114.886,160.858z M199.477,51.422c-0.025-3.875-3.225-6.993-7.131-6.973L36.397,45.466
			c-3.916,0.026-7.069,3.195-7.043,7.07l0.934,140.49c0.024,3.877,3.219,6.994,7.133,6.974l155.948-1.017
			c3.916-0.026,7.064-3.197,7.039-7.07L199.477,51.422z M65.263,51.984h7.09v7.024h-7.09V51.984z M51.086,51.984h7.09v7.024h-7.09
			V51.984z M36.912,51.984h7.087v7.024h-7.087V51.984z M36.912,83.595h28.352v7.022H36.912V83.595z M36.912,104.666v-7.024h21.264
			v7.024H36.912z M168.044,150.325h-9.364c-0.751,2.308-1.687,4.548-2.806,6.704l6.624,6.559c1.386,1.376,1.386,3.596,0,4.97
			l-15.038,14.9c-1.383,1.369-3.626,1.369-5.01,0l-6.62-6.564c-2.181,1.105-4.444,2.034-6.771,2.782v9.283
			c0,1.937-1.587,3.511-3.544,3.511H104.25c-1.957,0-3.544-1.574-3.544-3.511v-9.283c-2.326-0.748-4.591-1.677-6.771-2.782
			l-6.617,6.564c-1.386,1.369-3.63,1.369-5.012,0l-15.039-14.9c-1.383-1.374-1.383-3.594,0-4.97l6.625-6.559
			c-1.12-2.156-2.055-4.396-2.804-6.704h-9.367c-1.958,0-3.545-1.577-3.545-3.517v-21.072c0-1.938,1.587-3.517,3.545-3.517h9.367
			c0.55-1.687,1.202-3.345,1.948-4.969c0.271-0.582,0.554-1.156,0.851-1.733l-6.62-6.564c-1.383-1.368-1.383-3.592,0-4.963
			l15.039-14.899c1.382-1.376,3.626-1.376,5.012,0l6.617,6.558c2.179-1.104,4.445-2.03,6.771-2.772v-9.282
			c0-1.943,1.587-3.518,3.544-3.518h21.266c1.957,0,3.544,1.575,3.544,3.518v9.282c2.326,0.742,4.59,1.668,6.771,2.772l6.62-6.558
			c1.384-1.376,3.627-1.376,5.01,0l15.038,14.899c1.386,1.371,1.386,3.595,0,4.963l-6.624,6.564
			c1.119,2.151,2.055,4.401,2.806,6.702h9.364c1.963,0,3.549,1.578,3.549,3.517v21.072
			C171.593,148.748,170.007,150.325,168.044,150.325z M192.857,192.47h-21.265v-7.028h21.265V192.47z M192.857,73.055H36.912v-7.022
			h155.946V73.055z"/>
	</g>
</g>
</svg>
