<?xml version="1.0" encoding="utf-8"?>
<!-- Generator: Adobe Illustrator 16.0.0, SVG Export Plug-In . SVG Version: 6.00 Build 0)  -->
<!DOCTYPE svg PUBLIC "-//W3C//DTD SVG 1.1//EN" "http://www.w3.org/Graphics/SVG/1.1/DTD/svg11.dtd">
<svg version="1.1" id="Layer_1" xmlns="http://www.w3.org/2000/svg" xmlns:xlink="http://www.w3.org/1999/xlink" x="0px" y="0px"
	 width="200px" height="200px" viewBox="0 0 200 200" enable-background="new 0 0 200 200" xml:space="preserve">
<linearGradient id="SVGID_1_" gradientUnits="userSpaceOnUse" x1="1.7837" y1="100.0352" x2="191.5098" y2="100.0352">
	<stop  offset="0" style="stop-color:#FFB003"/>
	<stop  offset="1" style="stop-color:#FF611D"/>
</linearGradient>
<path fill="url(#SVGID_1_)" d="M39.718,84.583c-0.359-3.052-1.441-5.889-3.068-8.335l145.835-48.872L174.831,4.36
	c-1.112-3.344-4.718-5.146-8.046-4.031L8.147,53.497c-3.33,1.112-5.132,4.73-4.02,8.078L7.88,72.853
	c-3.747,3.497-6.096,8.476-6.096,14c0,7.158,3.943,13.407,9.759,16.682v90.153c0,3.522,2.848,6.383,6.36,6.383h167.246
	c3.509,0,6.361-2.86,6.361-6.383V84.583H39.718z M132.674,19.268l19.308-6.467l-4.649,18.846l-19.309,6.475L132.674,19.268z
	 M84.968,35.251l19.312-6.464l-4.647,18.848L80.323,54.11L84.968,35.251z M20.82,96.588c-5.345,0-9.699-4.365-9.699-9.735
	c0-5.363,4.354-9.732,9.699-9.732c5.348,0,9.7,4.369,9.7,9.732C30.521,92.224,26.168,96.588,20.82,96.588L20.82,96.588z
	 M37.268,51.243l19.312-6.472l-4.65,18.849l-19.307,6.471L37.268,51.243z M56.235,106.143H35.882l10.352-16.398h20.355
	L56.235,106.143z M96.523,89.744h20.356l-10.355,16.398H86.172L96.523,89.744z M91.529,169.008v-43.267l34.329,21.634
	L91.529,169.008z M156.815,106.143h-20.354l10.352-16.398h20.357L156.815,106.143z M156.815,106.143"/>
</svg>
