<?xml version="1.0" encoding="utf-8"?>
<!-- Generator: Adobe Illustrator 16.0.0, SVG Export Plug-In . SVG Version: 6.00 Build 0)  -->
<!DOCTYPE svg PUBLIC "-//W3C//DTD SVG 1.1//EN" "http://www.w3.org/Graphics/SVG/1.1/DTD/svg11.dtd">
<svg version="1.1" id="Layer_1" xmlns="http://www.w3.org/2000/svg" xmlns:xlink="http://www.w3.org/1999/xlink" x="0px" y="0px"
	 width="200px" height="200px" viewBox="0 0 200 200" enable-background="new 0 0 200 200" xml:space="preserve">
<g>
</g>
<g>
	<g>
		<linearGradient id="SVGID_1_" gradientUnits="userSpaceOnUse" x1="22.334" y1="98.748" x2="188.5" y2="98.748">
			<stop  offset="0" style="stop-color:#FBAC18"/>
			<stop  offset="0.9409" style="stop-color:#F26226"/>
		</linearGradient>
		<path fill="url(#SVGID_1_)" d="M105.417,14.325c3.501,0,8.563,8.726,12.389,24.121h12.313
			c-4.825-21.058-13.088-36.181-24.702-36.181c-11.605,0-19.881,15.123-24.692,36.181h12.301
			C96.853,23.051,101.915,14.325,105.417,14.325z M164.761,50.506h-32.359c1.261,8.198,2.099,16.913,2.455,25.807
			c3.616,2.062,6.166,5.852,6.166,10.375c0,6.668-5.309,12.061-11.866,12.061c-6.56,0-11.867-5.397-11.867-12.061
			c0-4.277,2.313-7.857,5.615-9.988c-0.391-9.741-1.318-18.515-2.596-26.194H90.52c-1.262,7.679-2.189,16.442-2.582,26.184
			c3.293,2.141,5.612,5.721,5.612,9.998c0,6.668-5.313,12.061-11.872,12.061s-11.872-5.397-11.872-12.061
			c0-4.522,2.549-8.313,6.171-10.375c0.355-8.894,1.188-17.609,2.455-25.807H46.067L22.334,195.231H188.5L164.761,50.506z"/>
	</g>
</g>
</svg>
