<?xml version="1.0" encoding="utf-8"?>
<!-- Generator: Adobe Illustrator 16.0.0, SVG Export Plug-In . SVG Version: 6.00 Build 0)  -->
<!DOCTYPE svg PUBLIC "-//W3C//DTD SVG 1.1//EN" "http://www.w3.org/Graphics/SVG/1.1/DTD/svg11.dtd">
<svg version="1.1" id="Layer_1" xmlns="http://www.w3.org/2000/svg" xmlns:xlink="http://www.w3.org/1999/xlink" x="0px" y="0px"
	 width="200px" height="200px" viewBox="0 0 200 200" enable-background="new 0 0 200 200" xml:space="preserve">
<g>
</g>
<linearGradient id="SVGID_1_" gradientUnits="userSpaceOnUse" x1="0" y1="100" x2="125.7129" y2="100">
	<stop  offset="0" style="stop-color:#FBAC18"/>
	<stop  offset="0.9409" style="stop-color:#F26226"/>
</linearGradient>
<path fill="url(#SVGID_1_)" d="M125.713,86.942c0-3.237-2.658-5.859-5.937-5.859h-18.304v4.922H83.657
	c-3.278,0-5.937-2.617-5.937-5.854c0-3.236,2.659-5.865,5.937-5.865h17.815v-7.41H83.657c-3.278,0-5.937-2.623-5.937-5.859
	s2.659-5.859,5.937-5.859h17.815v-7.411H83.657c-3.278,0-5.937-2.623-5.937-5.859c0-3.237,2.659-5.859,5.937-5.859h17.761
	C100.329,15.982,83.462,0,62.885,0h-0.059C42.249,0,25.382,15.982,24.294,36.027h17.759c3.278,0,5.938,2.623,5.938,5.859
	c0,3.236-2.66,5.859-5.938,5.859H24.238v7.411h17.815c3.278,0,5.938,2.623,5.938,5.859s-2.66,5.859-5.938,5.859H24.238v7.41h17.815
	c3.278,0,5.938,2.629,5.938,5.865c0,3.237-2.66,5.854-5.938,5.854H24.238v-4.922H5.935C2.656,81.083,0,83.706,0,86.942
	c0,3.019,2.313,5.502,5.284,5.826v7.176c0,25.585,17.221,47.271,40.826,54.37v13.264h-5.427c-12.634,0-22.91,10.146-22.91,22.617
	v3.945c0,3.237,2.656,5.859,5.935,5.859h78.298c3.278,0,5.937-2.622,5.937-5.859v-3.945c0-12.472-10.278-22.617-22.912-22.617h-5.43
	v-13.264c23.605-7.1,40.829-28.785,40.829-54.37v-7.176C123.401,92.444,125.713,89.961,125.713,86.942z M62.856,145.045
	c-25.2,0-45.7-20.229-45.7-45.101v-7.143h7.082v7.17c0,21,17.311,38.086,38.588,38.086h0.059c21.278,0,38.588-17.087,38.588-38.086
	v-7.17h7.082v7.143C108.558,124.815,88.055,145.045,62.856,145.045z"/>
</svg>
