<?xml version="1.0" encoding="utf-8"?>
<!-- Generator: Adobe Illustrator 16.0.0, SVG Export Plug-In . SVG Version: 6.00 Build 0)  -->
<!DOCTYPE svg PUBLIC "-//W3C//DTD SVG 1.1//EN" "http://www.w3.org/Graphics/SVG/1.1/DTD/svg11.dtd">
<svg version="1.1" id="Layer_1" xmlns="http://www.w3.org/2000/svg" xmlns:xlink="http://www.w3.org/1999/xlink" x="0px" y="0px"
	 width="200px" height="200px" viewBox="0 0 200 200" enable-background="new 0 0 200 200" xml:space="preserve">
<g>
</g>
<g>
	<g>
		<linearGradient id="SVGID_1_" gradientUnits="userSpaceOnUse" x1="19.1475" y1="101.209" x2="189.2871" y2="101.209">
			<stop  offset="0" style="stop-color:#FBAC18"/>
			<stop  offset="0.9409" style="stop-color:#F26226"/>
		</linearGradient>
		<path fill="url(#SVGID_1_)" d="M104.217,14.767c3.586,0,8.769,8.935,12.686,24.698h12.607
			c-4.942-21.563-13.398-37.046-25.293-37.046c-11.882,0-20.356,15.484-25.282,37.046h12.596
			C95.448,23.702,100.631,14.767,104.217,14.767z M164.98,51.813h-33.135c1.292,8.388,2.15,17.312,2.515,26.423
			c3.703,2.106,6.314,5.992,6.314,10.623c0,6.828-5.436,12.35-12.151,12.35s-12.15-5.526-12.15-12.35
			c0-4.384,2.368-8.05,5.751-10.226c-0.402-9.98-1.351-18.963-2.659-26.82H88.963c-1.292,7.857-2.24,16.834-2.642,26.809
			c3.371,2.187,5.746,5.853,5.746,10.237c0,6.828-5.44,12.35-12.156,12.35c-6.716,0-12.156-5.526-12.156-12.35
			c0-4.631,2.61-8.516,6.319-10.623c0.364-9.111,1.217-18.036,2.514-26.423h-33.14L19.147,200h170.14L164.98,51.813z"/>
	</g>
</g>
</svg>
