<?xml version="1.0" encoding="utf-8"?>
<!-- Generator: Adobe Illustrator 16.0.0, SVG Export Plug-In . SVG Version: 6.00 Build 0)  -->
<!DOCTYPE svg PUBLIC "-//W3C//DTD SVG 1.1//EN" "http://www.w3.org/Graphics/SVG/1.1/DTD/svg11.dtd">
<svg version="1.1" id="Layer_1" xmlns="http://www.w3.org/2000/svg" xmlns:xlink="http://www.w3.org/1999/xlink" x="0px" y="0px"
	 width="200px" height="200px" viewBox="0 0 200 200" enable-background="new 0 0 200 200" xml:space="preserve">
<g>
</g>
<g>
	<g>
		<linearGradient id="SVGID_1_" gradientUnits="userSpaceOnUse" x1="0.2451" y1="110.334" x2="199.9326" y2="110.334">
			<stop  offset="0" style="stop-color:#FBAC18"/>
			<stop  offset="0.9409" style="stop-color:#F26226"/>
		</linearGradient>
		<path fill="url(#SVGID_1_)" d="M114.067,133.706H35.365v35.081h78.702V133.706z M0.245,198h199.688V81.102H0.245V198z
			 M125.768,180.469H23.665v-58.444h102.103V180.469z M176.516,180.469h-39.033v-11.682h39.033V180.469z M176.516,157.087h-39.033
			v-11.681h39.033V157.087z M176.516,133.706h-39.033v-11.682h39.033V133.706z M23.66,98.652h152.856v11.676H23.66V98.652z
			 M0.245,22.667v46.758h199.688V22.667H0.245z M35.37,51.879H23.66V40.198h11.71V51.879z M58.79,51.879H47.08V40.198h11.71V51.879z
			 M82.207,51.879H70.499V40.198h11.708V51.879z"/>
	</g>
</g>
</svg>
