<?xml version="1.0" encoding="utf-8"?>
<!-- Generator: Adobe Illustrator 16.0.0, SVG Export Plug-In . SVG Version: 6.00 Build 0)  -->
<!DOCTYPE svg PUBLIC "-//W3C//DTD SVG 1.1//EN" "http://www.w3.org/Graphics/SVG/1.1/DTD/svg11.dtd">
<svg version="1.1" id="Layer_1" xmlns="http://www.w3.org/2000/svg" xmlns:xlink="http://www.w3.org/1999/xlink" x="0px" y="0px"
	 width="200px" height="200px" viewBox="0 0 200 200" enable-background="new 0 0 200 200" xml:space="preserve">
<g>
</g>
<g>
	<g>
		
			<linearGradient id="SVGID_1_" gradientUnits="userSpaceOnUse" x1="1.5112" y1="92.2041" x2="199.8496" y2="92.2041" gradientTransform="matrix(1 0 0 1 9.765625e-004 6.7959)">
			<stop  offset="0" style="stop-color:#FBAC18"/>
			<stop  offset="0.9409" style="stop-color:#F26226"/>
		</linearGradient>
		<path fill="url(#SVGID_1_)" d="M158.788,179.1h-19.061l-3.874-11.443H65.504L61.631,179.1H42.575
			c-3.214,0-5.811,2.563-5.811,5.721s2.597,5.721,5.811,5.721h116.213c3.209,0,5.812-2.563,5.812-5.721S161.997,179.1,158.788,179.1
			z M158.788,41.787c-3.207,0-5.811,2.563-5.811,5.721c0,3.159,2.604,5.722,5.811,5.722c3.209,0,5.812-2.563,5.812-5.722
			C164.6,44.35,161.997,41.787,158.788,41.787z M182.031,7.459H18.944c-9.615,0-17.432,7.697-17.432,17.164v97.262h35.251v-17.164
			c0-3.159,2.597-5.722,5.811-5.722h8.977c0.601-1.668,1.289-3.297,2.066-4.901l-6.35-6.258c-2.27-2.229-2.27-5.854,0-8.09
			L63.702,63.57c2.27-2.234,5.945-2.234,8.215,0l6.357,6.257c1.626-0.764,3.283-1.445,4.976-2.041v-8.835
			c0-3.159,2.598-5.721,5.811-5.721h23.243c3.207,0,5.811,2.563,5.811,5.721v8.84c1.688,0.591,3.348,1.271,4.977,2.036l6.356-6.257
			c2.266-2.234,5.944-2.234,8.215,0l16.434,16.181c2.27,2.235,2.27,5.86,0,8.09l-6.353,6.258c0.78,1.604,1.466,3.233,2.066,4.901
			h8.979c3.209,0,5.812,2.563,5.812,5.722v17.164h35.251V24.624C199.851,15.157,191.642,7.459,182.031,7.459z M158.788,64.672
			c-9.613,0-17.432-7.703-17.432-17.164c0-9.466,7.818-17.164,17.432-17.164c9.611,0,17.433,7.698,17.433,17.164
			C176.221,56.97,168.399,64.672,158.788,64.672z M83.25,116.165c0,1.976,0.462,3.883,1.127,5.721h32.609
			c0.661-1.838,1.128-3.745,1.128-5.721c0-9.466-7.822-17.165-17.433-17.165C91.067,99,83.25,106.699,83.25,116.165z M61.47,106.152
			c-0.663,2.522-2.978,4.291-5.63,4.291h-7.455v11.442h24.005c-0.39-1.887-0.762-3.779-0.762-5.721
			c0-15.774,13.034-28.607,29.053-28.607c16.017,0,29.055,12.833,29.055,28.607c0,1.941-0.379,3.834-0.766,5.721h24.007v-11.442
			h-7.459c-2.647,0-4.966-1.769-5.627-4.291c-0.928-3.547-2.369-6.978-4.301-10.202c-1.346-2.244-0.979-5.105,0.895-6.943
			l5.283-5.209l-8.213-8.09l-5.289,5.205c-1.879,1.847-4.789,2.219-7.063,0.878c-3.269-1.892-6.745-3.322-10.351-4.236
			c-2.567-0.656-4.36-2.93-4.36-5.542v-7.341H94.871v7.341c0,2.612-1.793,4.886-4.358,5.542c-3.61,0.914-7.089,2.344-10.352,4.236
			c-2.27,1.341-5.188,0.969-7.062-0.878l-5.29-5.205l-8.217,8.09l5.282,5.209c1.875,1.838,2.242,4.699,0.899,6.943
			C63.843,99.174,62.396,102.605,61.47,106.152z M1.512,139.05c0,9.467,7.817,17.164,17.432,17.164h163.087
			c9.61,0,17.819-7.697,17.819-17.164v-5.722H1.512V139.05z"/>
	</g>
</g>
</svg>
