<?xml version="1.0" encoding="utf-8"?>
<!-- Generator: Adobe Illustrator 16.0.0, SVG Export Plug-In . SVG Version: 6.00 Build 0)  -->
<!DOCTYPE svg PUBLIC "-//W3C//DTD SVG 1.1//EN" "http://www.w3.org/Graphics/SVG/1.1/DTD/svg11.dtd">
<svg version="1.1" id="Layer_1" xmlns="http://www.w3.org/2000/svg" xmlns:xlink="http://www.w3.org/1999/xlink" x="0px" y="0px"
	 width="200px" height="200px" viewBox="0 0 200 200" enable-background="new 0 0 200 200" xml:space="preserve">
<g>
</g>
<g>
	<g>
		<linearGradient id="SVGID_1_" gradientUnits="userSpaceOnUse" x1="0.5854" y1="112.4512" x2="200" y2="112.4512">
			<stop  offset="0" style="stop-color:#FBAC18"/>
			<stop  offset="0.9409" style="stop-color:#F26226"/>
		</linearGradient>
		<path fill="url(#SVGID_1_)" d="M114.258,135.792h-78.6v35.036h78.6V135.792z M0.585,200H200V83.257H0.585V200z M125.942,182.493
			H23.974v-58.366h101.969V182.493z M176.617,182.493h-38.98v-11.665h38.98V182.493z M176.617,159.144h-38.98v-11.667h38.98V159.144
			z M176.617,135.792h-38.98v-11.665h38.98V135.792z M23.969,100.786h152.648v11.656H23.969V100.786z M0.585,24.902v46.695H200
			V24.902H0.585z M35.663,54.075H23.969V42.409h11.694V54.075z M59.051,54.075H47.356V42.409h11.694V54.075z M82.434,54.075H70.745
			V42.409h11.689V54.075z"/>
	</g>
</g>
</svg>
