<?xml version="1.0" encoding="utf-8"?>
<!-- Generator: Adobe Illustrator 16.0.0, SVG Export Plug-In . SVG Version: 6.00 Build 0)  -->
<!DOCTYPE svg PUBLIC "-//W3C//DTD SVG 1.1//EN" "http://www.w3.org/Graphics/SVG/1.1/DTD/svg11.dtd">
<svg version="1.1" id="Layer_1" xmlns="http://www.w3.org/2000/svg" xmlns:xlink="http://www.w3.org/1999/xlink" x="0px" y="0px"
	 width="200px" height="200px" viewBox="0 0 200 200" enable-background="new 0 0 200 200" xml:space="preserve">
<g>
</g>
<g>
	<g>
		<linearGradient id="SVGID_1_" gradientUnits="userSpaceOnUse" x1="100.6646" y1="-0.665" x2="100.6645" y2="212.958">
			<stop  offset="0" style="stop-color:#44B976"/>
			<stop  offset="1" style="stop-color:#0FB156"/>
		</linearGradient>
		<path fill="url(#SVGID_1_)" d="M126.124,194.773c-3.415-2.53-3.778-6.321-3.778-6.321l-1.279-8.243H80.258l-1.282,8.237
			c0,0-0.358,3.797-3.771,6.327c-3.413,2.524-6.106,4.694-3.413,5.062c2.595,0.355,27.069,0.03,28.873,0
			c1.809,0.03,26.272,0.355,28.872,0C132.224,199.475,129.531,197.308,126.124,194.773z M70.509,115.198
			c-3.553,11.017-4.91,13.662-15.812,13.752c-10.904,0.082,15.298,6.038,33.59-1.584C106.578,119.749,77.064,97.806,70.509,115.198z
			 M90.77,108.937c5.292,4.29,4.017,4.599,9.537-2.3L166.06,34.61c5.521-6.902,5.713-15.971,0.422-20.262
			c-5.293-4.292-14.055-2.179-19.573,4.724L90.978,99.064C85.455,105.962,85.48,104.644,90.77,108.937z M160.673,15.287
			c-7.617,4.525-8.57,8.64-8.57,8.64s-0.82-0.959-3.543-3.153C152.642,14.055,160.673,15.287,160.673,15.287z M191.283,41.382
			h-24.597L155.825,53.28h31.521v95.196H13.986V53.28h100.847l8.323-11.898H10.043c-4.35,0-7.878,3.551-7.878,7.933v115.027
			c0,4.385,3.528,7.931,7.878,7.931h181.24c4.354,0,7.882-3.546,7.882-7.931V49.315C199.165,44.934,195.637,41.382,191.283,41.382z"
			/>
	</g>
</g>
</svg>
