<?xml version="1.0" encoding="utf-8"?>
<!-- Generator: Adobe Illustrator 16.0.0, SVG Export Plug-In . SVG Version: 6.00 Build 0)  -->
<!DOCTYPE svg PUBLIC "-//W3C//DTD SVG 1.1//EN" "http://www.w3.org/Graphics/SVG/1.1/DTD/svg11.dtd">
<svg version="1.1" id="Layer_1" xmlns="http://www.w3.org/2000/svg" xmlns:xlink="http://www.w3.org/1999/xlink" x="0px" y="0px"
	 width="200px" height="200px" viewBox="0 0 200 200" enable-background="new 0 0 200 200" xml:space="preserve">
<g>
</g>
<g>
	<g>
		<linearGradient id="SVGID_1_" gradientUnits="userSpaceOnUse" x1="4.882813e-004" y1="99.8477" x2="200.3096" y2="99.8477">
			<stop  offset="0" style="stop-color:#FBAC18"/>
			<stop  offset="0.9409" style="stop-color:#F26226"/>
		</linearGradient>
		<path fill="url(#SVGID_1_)" d="M193.438,159.925l-77.877-77.871l-33.197,33.192l77.872,77.882c9.173,9.162,24.029,9.162,33.202,0
			C202.601,183.955,202.601,169.093,193.438,159.925z M120.902,128.894l8.301-8.301l8.299,8.301l-8.299,8.301L120.902,128.894z
			 M137.502,145.494l8.303-8.3l8.296,8.3l-8.296,8.296L137.502,145.494z M162.401,170.385l-8.301-8.294l8.301-8.301l8.295,8.301
			L162.401,170.385z M66.899,116.387l-6.542,6.656c-15.558-8.379-35.308-6.188-48.447,6.951
			c-13.139,13.141-15.331,32.89-6.95,48.444l23.548-23.547l16.598,16.601L21.559,195.04c15.557,8.379,35.308,6.188,48.447-6.946
			c13.139-13.139,15.331-32.89,6.95-48.449l6.542-6.662L66.899,116.387z M132.814,82.709l7.141-6.064
			c15.56,8.384,35.304,6.192,48.449-6.953c13.134-13.139,15.326-32.889,6.946-48.444l-23.548,23.548l-16.602-16.596l23.55-23.548
			c-15.557-8.378-35.306-6.186-48.446,6.947c-13.139,13.133-15.33,32.89-6.949,48.45l-7.14,6.064L132.814,82.709z M46,62.288
			l36.365,36.362l16.598-16.596L62.597,45.686l-4.329-21.658L14.676-0.191L0.119,14.362l24.214,43.595L46,62.288z"/>
	</g>
</g>
</svg>
