<?xml version="1.0" encoding="utf-8"?>
<!-- Generator: Adobe Illustrator 16.0.0, SVG Export Plug-In . SVG Version: 6.00 Build 0)  -->
<!DOCTYPE svg PUBLIC "-//W3C//DTD SVG 1.1//EN" "http://www.w3.org/Graphics/SVG/1.1/DTD/svg11.dtd">
<svg version="1.1" id="Layer_1" xmlns="http://www.w3.org/2000/svg" xmlns:xlink="http://www.w3.org/1999/xlink" x="0px" y="0px"
	 width="200px" height="200px" viewBox="0 0 200 200" enable-background="new 0 0 200 200" xml:space="preserve">
<g>
</g>
<g>
	<g>
		<linearGradient id="SVGID_1_" gradientUnits="userSpaceOnUse" x1="0.042" y1="109.7842" x2="199.4668" y2="109.7842">
			<stop  offset="0" style="stop-color:#FBAC18"/>
			<stop  offset="0.9409" style="stop-color:#F26226"/>
		</linearGradient>
		<path fill="url(#SVGID_1_)" d="M185.765,19.568H13.744c-7.567,0-13.702,6.116-13.702,13.664v105.11
			c0,7.549,6.135,13.669,13.702,13.669h53.793l-18.011,35.163c-2.225,4.33-0.5,9.645,3.849,11.856
			c1.29,0.654,2.662,0.969,4.016,0.969c3.214,0,6.316-1.752,7.878-4.809l22.123-43.18h3.524v27.225c0,4.868,3.955,8.815,8.838,8.815
			c4.883,0,8.838-3.947,8.838-8.815v-27.225h3.523l22.118,43.18c1.567,3.057,4.666,4.809,7.883,4.809
			c1.354,0,2.727-0.314,4.011-0.969c4.35-2.212,6.074-7.526,3.854-11.856l-18.014-35.163h53.797c7.563,0,13.702-6.115,13.702-13.669
			V33.232C199.467,25.684,193.328,19.568,185.765,19.568z M184.568,128.883H14.94V42.697h169.628V128.883z M42.864,109.659
			c0.538,0.213,1.094,0.315,1.642,0.315c1.753,0,3.413-1.044,4.108-2.768l5.073-12.622h13.735l5.105,12.626
			c0.909,2.257,3.482,3.352,5.75,2.442c2.263-0.908,3.357-3.477,2.448-5.734L64.718,64.305c-0.672-1.669-2.295-2.764-4.099-2.764
			h-0.176c-1.809,0-3.432,1.094-4.104,2.773l-15.932,39.609C39.498,106.186,40.596,108.755,42.864,109.659z M60.54,77.548
			l3.32,8.221h-6.626L60.54,77.548z M87.889,109.816c1.386,0.19,4.344,0.515,8.56,0.515c7.771,0,13.085-1.548,16.717-4.859
			c0.031-0.027,0.064-0.064,0.097-0.092c3.074-2.978,4.702-6.812,4.702-11.101c0-4.61-1.896-8.06-4.488-10.443
			c1.934-2.318,3.014-5.194,3.014-8.305c0-4.326-1.781-8.044-5.013-10.474c-3.297-2.629-7.498-3.807-13.614-3.807
			c-3.7,0-7.544,0.348-10.28,0.918c-2.045,0.431-3.51,2.23-3.51,4.317v38.963C84.073,107.65,85.705,109.516,87.889,109.816z
			 M92.911,70.295c1.576-0.143,3.306-0.231,4.952-0.231c5.119,0,7.029,1.021,8.124,1.901c0.047,0.037,0.093,0.074,0.144,0.106
			c0.649,0.487,1.516,1.368,1.516,3.458c0,1.818-1.2,3.399-3.244,4.326H92.911V70.295z M92.911,88.667h11.537
			c1.293,0.362,4.674,1.669,4.674,5.611c0,1.9-0.626,3.404-1.966,4.729c-1.869,1.661-5.468,2.504-10.707,2.504
			c-1.335,0-2.518-0.037-3.538-0.093V88.667z M144.677,110.118c4.767,0,9.344-0.863,12.241-2.305
			c2.181-1.09,3.066-3.733,1.976-5.912c-1.089-2.179-3.746-3.06-5.931-1.97c-0.955,0.477-3.908,1.373-8.286,1.373
			c-9.255,0-14.782-5.681-14.782-15.201c0-9.686,6.232-15.946,15.877-15.946c4.688,0,6.942,1.099,7.188,1.224
			c2.159,1.122,4.831,0.287,5.958-1.869c1.127-2.161,0.287-4.827-1.879-5.949c-1.287-0.668-4.961-2.226-11.267-2.226
			c-14.551,0-24.715,10.183-24.715,24.766C121.057,100.473,130.548,110.118,144.677,110.118z"/>
	</g>
</g>
</svg>
