<svg id="Layer_1" data-name="Layer 1" xmlns="http://www.w3.org/2000/svg" xmlns:xlink="http://www.w3.org/1999/xlink" viewBox="0 0 39 39"><defs><style>.cls-1{fill:url(#linear-gradient);}.cls-2{fill:url(#linear-gradient-2);}.cls-3{fill:url(#linear-gradient-3);}.cls-4{fill:url(#linear-gradient-4);}.cls-5{fill:url(#linear-gradient-5);}.cls-6{fill:url(#linear-gradient-6);}.cls-7{fill:url(#linear-gradient-7);}.cls-8{fill:url(#linear-gradient-8);}.cls-9{fill:url(#linear-gradient-9);}.cls-10{fill:url(#linear-gradient-10);}.cls-11{fill:url(#linear-gradient-11);}.cls-12{fill:url(#linear-gradient-12);}.cls-13{fill:url(#linear-gradient-13);}.cls-14{fill:url(#linear-gradient-14);}.cls-15{fill:url(#linear-gradient-15);}.cls-16{fill:url(#linear-gradient-16);}</style><linearGradient id="linear-gradient" x1="-8.72" y1="13.33" x2="23.01" y2="43.8" gradientUnits="userSpaceOnUse"><stop offset="0" stop-color="#ff5b1f"/><stop offset="1" stop-color="#ffb301"/></linearGradient><linearGradient id="linear-gradient-2" x1="2.18" y1="1.98" x2="33.91" y2="32.46" xlink:href="#linear-gradient"/><linearGradient id="linear-gradient-3" x1="2.87" y1="1.26" x2="34.6" y2="31.73" xlink:href="#linear-gradient"/><linearGradient id="linear-gradient-4" x1="5.8" y1="-1.79" x2="37.53" y2="28.69" xlink:href="#linear-gradient"/><linearGradient id="linear-gradient-5" x1="11.69" y1="-7.93" x2="43.42" y2="22.55" xlink:href="#linear-gradient"/><linearGradient id="linear-gradient-6" x1="14.62" y1="-10.98" x2="46.35" y2="19.5" xlink:href="#linear-gradient"/><linearGradient id="linear-gradient-7" x1="1.63" y1="2.55" x2="33.36" y2="33.03" xlink:href="#linear-gradient"/><linearGradient id="linear-gradient-8" x1="6.7" y1="-2.73" x2="38.43" y2="27.75" xlink:href="#linear-gradient"/><linearGradient id="linear-gradient-9" x1="-7.61" y1="12.17" x2="24.12" y2="42.65" xlink:href="#linear-gradient"/><linearGradient id="linear-gradient-10" x1="11.5" y1="-7.73" x2="43.24" y2="22.75" xlink:href="#linear-gradient"/><linearGradient id="linear-gradient-11" x1="1.76" y1="2.41" x2="33.49" y2="32.89" xlink:href="#linear-gradient"/><linearGradient id="linear-gradient-12" x1="1.63" y1="2.55" x2="33.36" y2="33.03" xlink:href="#linear-gradient"/><linearGradient id="linear-gradient-13" x1="4.77" y1="-0.73" x2="36.51" y2="29.75" xlink:href="#linear-gradient"/><linearGradient id="linear-gradient-14" x1="0.39" y1="3.84" x2="32.12" y2="34.32" xlink:href="#linear-gradient"/><linearGradient id="linear-gradient-15" x1="3.51" y1="0.59" x2="35.24" y2="31.07" xlink:href="#linear-gradient"/><linearGradient id="linear-gradient-16" x1="-0.25" y1="4.5" x2="31.49" y2="34.98" xlink:href="#linear-gradient"/></defs><title>audit</title><path class="cls-1" d="M14.7,28.19H.79v1.33a1.34,1.34,0,0,0,1.34,1.34H16A10.68,10.68,0,0,1,14.7,28.19Z"/><path class="cls-2" d="M14.15,24.85a10.69,10.69,0,0,1,.14-1.6L8.34,17.3a.68.68,0,0,1,0-.95L21.7,3a.71.71,0,0,1,.47-.2h5.35V.12H6.14A1.34,1.34,0,0,0,4.8,1.46V25.51H3.46v-20H2.13A1.34,1.34,0,0,0,.79,6.8V26.85H14.35A11.21,11.21,0,0,1,14.15,24.85ZM11.48,1.46h1.34V2.79H11.48Zm-2.67,0h1.33V2.79H8.81Zm-2.67,0H7.47V2.79H6.14Zm0,4h6.68V6.8H6.14Zm0,2.67h6.68V9.48H6.14Zm0,2.67h4v1.34h-4Zm0,10.69h4.67v1.34H6.14Zm6.68,4H6.14V24.18h6.68Z"/><path class="cls-3" d="M24.85,20.84a2.88,2.88,0,0,1,.41,0,10.18,10.18,0,0,1,6,2.12,6.68,6.68,0,0,0-12.83,0,10.23,10.23,0,0,1,6-2.12A3,3,0,0,1,24.85,20.84Z"/><path class="cls-4" d="M9.75,16.83l4.88,4.87a10.54,10.54,0,0,1,.82-2l-3.1-3.11.94-.94,2.9,2.9a11.92,11.92,0,0,1,1-1.16l-2.81-2.8,1-1,2.85,2.85a10.61,10.61,0,0,1,2.43-1.48l-1.2-.24a.67.67,0,0,1-.53-.52L18.18,11a.69.69,0,0,1,.19-.61l2-2a.64.64,0,0,1,.6-.18l3.34.67a.66.66,0,0,1,.53.52l.67,3.34a.67.67,0,0,1-.19.6l-.88.89.41,0a10.68,10.68,0,0,1,1.6.13l3.07-3.09V6.52a3.37,3.37,0,0,1-1.93-2.39H22.45ZM26.85,5.47A1.34,1.34,0,1,1,25.51,6.8,1.34,1.34,0,0,1,26.85,5.47Z"/><path class="cls-5" d="M30.86,11.48a.63.63,0,0,1-.2.47L28,14.63a10.72,10.72,0,0,1,6.21,5V6.8H30.86Z"/><path class="cls-6" d="M30.86,5.47h2.4l-4.4-4.4V3.46A2,2,0,0,0,30.86,5.47Z"/><path class="cls-7" d="M22.17,24.85a2.68,2.68,0,1,0,2.68-2.68A2.68,2.68,0,0,0,22.17,24.85Zm4,0a1.34,1.34,0,1,1-1.33-1.34A1.34,1.34,0,0,1,26.18,24.85Z"/><path class="cls-8" d="M19.56,11l.51,2.56,2.55.51,1.5-1.5L23.61,10l-2.55-.51Z"/><path class="cls-9" d="M23.31,35.41A10.64,10.64,0,0,1,17.1,32.2h-.44l-1.61,5.34h-2.9v1.34h14.7V37.54H24Z"/><path class="cls-10" d="M36.87,5.47H35.15l.19.19a.9.9,0,0,1,.14.2.14.14,0,0,0,0,.06.55.55,0,0,1,0,.17s0,0,0,0V25.51h0a10,10,0,0,1-.17,1.34h2.87V6.8A1.34,1.34,0,0,0,36.87,5.47Z"/><path class="cls-11" d="M33.21,31.48a10.64,10.64,0,0,1-1,1.11l4.73,4.73A.75.75,0,1,0,38,36.26Z"/><path class="cls-12" d="M24.85,15.49a9.36,9.36,0,1,0,9.35,9.36A9.36,9.36,0,0,0,24.85,15.49Zm0,17.37a8,8,0,1,1,8-8A8,8,0,0,1,24.85,32.86Z"/><path class="cls-13" d="M33.92,30.47l.09-.08.47.47h2.39a1.34,1.34,0,0,0,1.34-1.34V28.19H35A10.58,10.58,0,0,1,33.92,30.47Z"/><path class="cls-14" d="M24.85,28.86a3,3,0,0,1-.42,0,10.2,10.2,0,0,1-6-2.12,6.68,6.68,0,0,0,12.83,0,10.2,10.2,0,0,1-6,2.12Z"/><path class="cls-15" d="M28.86,24.85a4.16,4.16,0,0,1-.56,2,8.26,8.26,0,0,0,3-2,8.17,8.17,0,0,0-3-2A4.17,4.17,0,0,1,28.86,24.85Z"/><path class="cls-16" d="M20.84,24.85a4,4,0,0,1,.56-2,8,8,0,0,0-3,2,8.1,8.1,0,0,0,3,2A4,4,0,0,1,20.84,24.85Z"/></svg>