<svg id="Layer_1" data-name="Layer 1" xmlns="http://www.w3.org/2000/svg" xmlns:xlink="http://www.w3.org/1999/xlink" viewBox="0 0 39 39"><defs><style>.cls-1{fill:url(#linear-gradient);}.cls-2{fill:url(#linear-gradient-2);}.cls-3{fill:url(#linear-gradient-3);}.cls-4{fill:url(#linear-gradient-4);}.cls-5{fill:url(#linear-gradient-5);}</style><linearGradient id="linear-gradient" x1="-7.53" y1="12.26" x2="33.01" y2="40.48" gradientUnits="userSpaceOnUse"><stop offset="0" stop-color="#ff5b1f"/><stop offset="1" stop-color="#ffb301"/></linearGradient><linearGradient id="linear-gradient-2" x1="-3.37" y1="6.28" x2="37.17" y2="34.49" xlink:href="#linear-gradient"/><linearGradient id="linear-gradient-3" x1="-12.28" y1="19.08" x2="28.26" y2="47.29" xlink:href="#linear-gradient"/><linearGradient id="linear-gradient-4" x1="3.23" y1="-3.21" x2="43.77" y2="25.01" xlink:href="#linear-gradient"/><linearGradient id="linear-gradient-5" x1="3.23" y1="-3.21" x2="43.77" y2="25.01" xlink:href="#linear-gradient"/></defs><title>Find-perfect-keywords</title><path class="cls-1" d="M26.21,27.35a14.49,14.49,0,0,1-9.6-3.62l-2,2,1.74,1.74a.93.93,0,0,1,.28.7,1,1,0,0,1-.33.69L8.49,35.64v2.72H33.11V25.61A14.45,14.45,0,0,1,26.21,27.35Z"/><path class="cls-2" d="M11.65,12.79a14.46,14.46,0,0,1,1-5.4H8.49v17.2l1.61-1.86a1,1,0,0,1,.69-.33.93.93,0,0,1,.7.28l1.74,1.74,2-2A14.49,14.49,0,0,1,11.65,12.79Z"/><path class="cls-3" d="M12.56,26.44h0l-1.69-1.69L1.39,35.68a.85.85,0,0,1-.28.22L1,36a1.55,1.55,0,0,0-.82,1.13,1.51,1.51,0,0,0,.43,1.32,1.51,1.51,0,0,0,1.32.43A1.55,1.55,0,0,0,3,38l.08-.15a.85.85,0,0,1,.22-.28l10.93-9.48Z"/><path class="cls-4" d="M26.21.12A12.67,12.67,0,1,0,38.88,12.79,12.68,12.68,0,0,0,26.21.12Zm0,22.69a10,10,0,1,1,10-10A10,10,0,0,1,26.21,22.81Z"/><path class="cls-5" d="M26.21,4.67a8.12,8.12,0,1,0,8.12,8.12A8.12,8.12,0,0,0,26.21,4.67Zm4.32,4.19-1,7.06a1,1,0,0,1-.72.8.9.9,0,0,1-.23,0,1,1,0,0,1-.78-.41L26.21,14l-1.63,2.38a1,1,0,0,1-1,.39,1,1,0,0,1-.72-.8l-1-7.06a.95.95,0,1,1,1.88-.25l.62,4.61,1-1.49a.94.94,0,0,1,1.57,0l1,1.49.62-4.61a1,1,0,1,1,1.89.25Z"/></svg>