<svg id="Layer_1" data-name="Layer 1" xmlns="http://www.w3.org/2000/svg" xmlns:xlink="http://www.w3.org/1999/xlink" viewBox="0 0 39 39"><defs><style>.cls-1{fill:url(#linear-gradient);}.cls-2{fill:url(#linear-gradient-2);}.cls-3{fill:url(#linear-gradient-3);}.cls-4{fill:url(#linear-gradient-4);}.cls-5{fill:url(#linear-gradient-5);}.cls-6{fill:url(#linear-gradient-6);}.cls-7{fill:url(#linear-gradient-7);}.cls-8{fill:url(#linear-gradient-8);}.cls-9{fill:url(#linear-gradient-9);}.cls-10{fill:url(#linear-gradient-10);}.cls-11{fill:url(#linear-gradient-11);}.cls-12{fill:url(#linear-gradient-12);}.cls-13{fill:url(#linear-gradient-13);}.cls-14{fill:url(#linear-gradient-14);}.cls-15{fill:url(#linear-gradient-15);}</style><linearGradient id="linear-gradient" x1="2.94" y1="-1.2" x2="38.62" y2="29.93" gradientUnits="userSpaceOnUse"><stop offset="0" stop-color="#ff5b1f"/><stop offset="1" stop-color="#ffb301"/></linearGradient><linearGradient id="linear-gradient-2" x1="-2.13" y1="4.61" x2="33.54" y2="35.75" xlink:href="#linear-gradient"/><linearGradient id="linear-gradient-3" x1="0.29" y1="1.84" x2="35.96" y2="32.97" xlink:href="#linear-gradient"/><linearGradient id="linear-gradient-4" x1="-5.27" y1="8.2" x2="30.41" y2="39.34" xlink:href="#linear-gradient"/><linearGradient id="linear-gradient-5" x1="1.61" y1="0.32" x2="37.29" y2="31.45" xlink:href="#linear-gradient"/><linearGradient id="linear-gradient-6" x1="-4.81" y1="7.67" x2="30.87" y2="38.81" xlink:href="#linear-gradient"/><linearGradient id="linear-gradient-7" x1="-0.21" y1="2.41" x2="35.46" y2="33.54" xlink:href="#linear-gradient"/><linearGradient id="linear-gradient-8" x1="-6.96" y1="10.14" x2="28.72" y2="41.27" xlink:href="#linear-gradient"/><linearGradient id="linear-gradient-9" x1="-2.37" y1="4.88" x2="33.31" y2="36.01" xlink:href="#linear-gradient"/><linearGradient id="linear-gradient-10" x1="-8.78" y1="12.23" x2="26.89" y2="43.37" xlink:href="#linear-gradient"/><linearGradient id="linear-gradient-11" x1="6.17" y1="-4.9" x2="41.84" y2="26.24" xlink:href="#linear-gradient"/><linearGradient id="linear-gradient-12" x1="-1.79" y1="4.22" x2="33.88" y2="35.35" xlink:href="#linear-gradient"/><linearGradient id="linear-gradient-13" x1="-7.46" y1="10.71" x2="28.22" y2="41.84" xlink:href="#linear-gradient"/><linearGradient id="linear-gradient-14" x1="-1.9" y1="4.34" x2="33.78" y2="35.48" xlink:href="#linear-gradient"/><linearGradient id="linear-gradient-15" x1="-5.04" y1="7.94" x2="30.64" y2="39.07" xlink:href="#linear-gradient"/></defs><title>link-building</title><path class="cls-1" d="M38.88,17.86V16.54a6.57,6.57,0,1,0-13.14,0v1.32A6.56,6.56,0,0,0,31,24.29v.27A6.58,6.58,0,0,0,25.74,31v1.31a6.57,6.57,0,0,0,13.14,0V31a6.58,6.58,0,0,0-5.26-6.44v-.27A6.56,6.56,0,0,0,38.88,17.86ZM36.25,31v1.31a3.94,3.94,0,1,1-7.88,0V31A4,4,0,0,1,31,27.28v2.4a1.31,1.31,0,1,0,2.62,0v-2.4A4,4,0,0,1,36.25,31ZM32.31,17.86A1.31,1.31,0,0,0,31,19.17v2.4a3.94,3.94,0,0,1-2.63-3.71V16.54a3.94,3.94,0,1,1,7.88,0v1.32a3.94,3.94,0,0,1-2.63,3.71v-2.4A1.31,1.31,0,0,0,32.31,17.86Z"/><path class="cls-2" d="M15.52,24.43H19.9a9.18,9.18,0,0,0,1.21-3.94H15.88a27.6,27.6,0,0,1-.36,3.94Z"/><path class="cls-3" d="M15.88,19.17h5.23a9.14,9.14,0,0,0-1.21-3.94H15.52A27.6,27.6,0,0,1,15.88,19.17Z"/><path class="cls-4" d="M14.12,28.75a9.2,9.2,0,0,0,4.86-3H15.25A10.7,10.7,0,0,1,14.12,28.75Z"/><path class="cls-5" d="M19,13.92a9.16,9.16,0,0,0-4.86-3,10.9,10.9,0,0,1,1.13,3Z"/><path class="cls-6" d="M9.71,24.43h4.47a24.72,24.72,0,0,0,.38-3.94H9.33A24.72,24.72,0,0,0,9.71,24.43Z"/><path class="cls-7" d="M12,10.63c-.62,0-1.4,1.2-1.95,3.29h3.89C13.34,11.83,12.56,10.63,12,10.63Z"/><path class="cls-8" d="M12,29c.61,0,1.39-1.2,1.94-3.29H10C10.55,27.83,11.33,29,12,29Z"/><path class="cls-9" d="M14.18,15.23H9.71a24.72,24.72,0,0,0-.38,3.94h5.23A24.72,24.72,0,0,0,14.18,15.23Z"/><path class="cls-10" d="M4.91,25.74a9.2,9.2,0,0,0,4.86,3,10.7,10.7,0,0,1-1.13-3Z"/><path class="cls-11" d="M31.65.78A.66.66,0,0,0,31,.12H.78A.67.67,0,0,0,.12.78V6.69H31.65ZM4.72,4.72H2.09V2.09H4.72Zm5.25,0H7.35V2.09H10Zm5.26,0H12.6V2.09h2.63Z"/><path class="cls-12" d="M28,24.43a7.91,7.91,0,0,1-3.54-6.57V16.54a7.89,7.89,0,0,1,7.22-7.85V8H.12V31a.66.66,0,0,0,.66.65H24.43V31A7.89,7.89,0,0,1,28,24.43ZM12,30.34A10.51,10.51,0,1,1,22.46,19.83,10.52,10.52,0,0,1,12,30.34Z"/><path class="cls-13" d="M8,20.49H2.78A9.18,9.18,0,0,0,4,24.43H8.37A27.6,27.6,0,0,1,8,20.49Z"/><path class="cls-14" d="M9.77,10.9a9.16,9.16,0,0,0-4.86,3H8.64A10.9,10.9,0,0,1,9.77,10.9Z"/><path class="cls-15" d="M8.37,15.23H4a9.14,9.14,0,0,0-1.21,3.94H8A27.6,27.6,0,0,1,8.37,15.23Z"/></svg>