<svg id="Layer_1" data-name="Layer 1" xmlns="http://www.w3.org/2000/svg" xmlns:xlink="http://www.w3.org/1999/xlink" viewBox="0 0 39 39"><defs><style>.cls-1{fill:url(#linear-gradient);}.cls-2{fill:url(#linear-gradient-2);}.cls-3{fill:url(#linear-gradient-3);}.cls-4{fill:url(#linear-gradient-4);}.cls-5{fill:url(#linear-gradient-5);}.cls-6{fill:url(#linear-gradient-6);}.cls-7{fill:url(#linear-gradient-7);}</style><linearGradient id="linear-gradient" x1="-3.34" y1="8.55" x2="38.82" y2="43.9" gradientUnits="userSpaceOnUse"><stop offset="0" stop-color="#ff5b1f"/><stop offset="1" stop-color="#ffb301"/></linearGradient><linearGradient id="linear-gradient-2" x1="-1.74" y1="6.64" x2="40.42" y2="41.99" xlink:href="#linear-gradient"/><linearGradient id="linear-gradient-3" x1="-6.65" y1="12.49" x2="35.51" y2="47.85" xlink:href="#linear-gradient"/><linearGradient id="linear-gradient-4" x1="8.53" y1="-5.61" x2="50.69" y2="29.74" xlink:href="#linear-gradient"/><linearGradient id="linear-gradient-5" x1="1.74" y1="2.49" x2="43.9" y2="37.84" xlink:href="#linear-gradient"/><linearGradient id="linear-gradient-6" x1="-7.18" y1="13.12" x2="34.99" y2="48.47" xlink:href="#linear-gradient"/><linearGradient id="linear-gradient-7" x1="0.52" y1="3.94" x2="42.69" y2="39.29" xlink:href="#linear-gradient"/></defs><title>reporting-and-analysis</title><path class="cls-1" d="M14.66,20.88h4.15v9H14.66Z"/><path class="cls-2" d="M20.19,23.65h4.15v6.23H20.19Z"/><path class="cls-3" d="M9.12,25h4.15v4.84H9.12Z"/><path class="cls-4" d="M36.11,2.2H2.89V5H36.11ZM5.66,4.27H4.27V2.89H5.66Zm2.77,0H7V2.89H8.43Zm2.76,0H9.81V2.89h1.38Zm23.54,0H33.34V2.89h1.39Z"/><path class="cls-5" d="M25.73,18.81h4.15V29.88H25.73Z"/><path class="cls-6" d="M26.58,34.73l-1.23.61a.71.71,0,0,1-.31.08H14a.71.71,0,0,1-.31-.08l-1.23-.61H.12v1a1,1,0,0,0,1,1H37.84a1,1,0,0,0,1-1v-1Z"/><path class="cls-7" d="M12.89,33.41l1.24.62H24.87l1.24-.62a.82.82,0,0,1,.31-.07h9.69v-27H2.89v27h9.69a.82.82,0,0,1,.31.07Zm4.26-20.69,5.05,3.79,7.88-7.88,1,1-8.3,8.3a.7.7,0,0,1-.91.07l-5.07-3.81L8.89,21.39l-.93-1,8.3-7.61A.71.71,0,0,1,17.15,12.72Zm-6.65-.14V11.19h2.08v1.39ZM7.73,8.43h4.85V9.81H7.73ZM5,8.43H6.35V9.81H5Zm0,2.76H9.12v1.39H5Zm-.7,18.69H7.73V24.34a.69.69,0,0,1,.7-.69h4.84V20.19A.69.69,0,0,1,14,19.5H19.5a.69.69,0,0,1,.69.69v2.08h4.15V18.12a.7.7,0,0,1,.7-.7h5.53a.7.7,0,0,1,.7.7V29.88h3.46v1.39H4.27Z"/></svg>